<svg xmlns="http://www.w3.org/2000/svg" id="GE_Vernova_SVG" x="0px" y="0px" viewBox="0 0 1273.8005 281.3" width="1273.8005" height="281.29999" fill="#000"><defs id="defs1" /><style type="text/css" id="style1">
	.st0{fill:#000;}
</style><path id="Path_1" class="st0" d="m 432.60048,119.2 c -6.9,-6.6 -16.1,-10.3 -25.7,-10.1 -17.3,0 -30.3,13.7 -30.3,31.5 0,17.8 13.2,31.5 31.1,31.5 8.2,0 17.2,-2.3 23.1,-6.1 v -17.3 h -25.8 v -13 h 40 v 37.2 c -8.5,7.8 -24,12.7 -37.3,12.7 -25.7,0 -45.7,-20 -45.7,-44.9 -0.1,-24.7 19.8,-44.8 44.5,-44.9 0.1,0 0.3,0 0.4,0 14.1,0 26.3,5 35.1,13.4 z m 54.8,27.5 v 23.5 h 51.3 v 13.1 h -65.7 V 97.9 h 65.7 V 111 h -51.3 v 22.7 h 43.4 v 13.1 z m 103.8,-48.8 h 15.6 l 28.8,68.2 28.8,-68.2 h 14.9 l -36.6,85.4 h -14.9 z m 121.4,48.8 v 23.5 h 51.3 v 13.1 h -65.7 V 97.9 h 65.7 V 111 h -51.3 v 22.7 h 43.4 v 13.1 z m 136.2,36.6 -18.5,-32.1 h -25.1 v 32.1 h -14.4 V 97.9 h 45.5 c 16.7,0 29.1,11.5 29.1,26.7 0,12.2 -8,22 -19.7,25.4 l 19.7,33.3 z m 2,-58.7 c 0,-8.5 -5.5,-13.7 -14.5,-13.7 h -31.1 v 27.2 h 31.1 c 9,0 14.5,-5.1 14.5,-13.5 z m 42.2,-26.7 h 15.1 l 47.8,63.3 V 97.9 h 14.1 v 85.4 h -14.5 l -48.4,-63.7 v 63.7 h -14.1 z m 102.7,42.7 c 0,-24.9 20.10002,-45.1 45.00002,-45.2 24.9,0 45.1,20.1 45.2,45 0,24.9 -20.1,45.1 -45,45.2 0,0 -0.1,0 -0.1,0 -24.8,0.1 -45.00002,-19.9 -45.10002,-44.7 0,-0.1 0,-0.2 0,-0.3 z m 75.60002,0 c 0,-17.8 -13.3,-31.5 -30.5,-31.5 -17.2,0 -30.5,13.7 -30.5,31.5 0,17.8 13.3,31.6 30.5,31.6 17.2,0 30.5,-13.8 30.5,-31.6 z m 25.1,-42.7 h 15.6 l 28.8,68.2 28.8,-68.2 h 14.9 l -36.6,85.4 h -14.9 z m 177.4,85.4 h -15.5 l -9,-21.5 h -40.5 l -9,21.5 h -14.7 l 36.6,-85.4 h 15.6 z m -30,-34.5 -14.7,-35.4 -14.7,35.4 z M 171.90048,104 c 0,-16 10.8,-31.5 16.7,-28.6 6.7,3.4 -5.1,18.5 -16.7,28.6 m -73.600004,5.9 c 0,-12.9 12.700004,-37.3 20.400004,-34.7 9.2,3 -7.6,27.6 -20.400004,34.7 z m -12.9,91.9 c -5.8,0.3 -9.7,-3.5 -9.7,-9.7 0,-16.8 23.2,-32.7 40.700004,-41.3 -3.1,23.4 -11,50.1 -31.000004,51 z M 192.50048,147.3 c -13.2,0 -23.4,9.7 -23.4,21.4 0,9.7 5.8,17.5 13.6,17.5 2.7,0 5.4,-1.6 5.4,-5.1 0,-5.1 -6.7,-6.3 -6.2,-13.9 0.3,-5 5,-8.3 9.7,-8.3 9.3,0 13.7,9.1 13.7,18.4 -0.4,14.4 -11,24.4 -23.4,24.4 -16.4,0 -26.8,-15.6 -26.8,-32.3 0,-24.9 16.3,-34.7 24.9,-37 0.1,0 22.4,4 21.7,-5.9 -0.3,-4.3 -6.7,-6 -11.4,-6.2 -3.5,0 -7,0.5 -10.4,1.7 -2.8,-1.6 -4.8,-4.1 -5.8,-7.2 16,-12.1 27.2,-23.8 27.2,-37 0,-7 -4.7,-13.2 -13.6,-13.2 -16,0 -28,20.3 -28,38.6 -0.1,3 0.1,6 0.8,9 -10.1,7.4 -17.6,12 -31.3,20.2 0.2,-4 0.7,-7.9 1.5,-11.8 4.7,-5.1 11.1,-12.6 11.1,-18.5 0,-2.7 -1.6,-5.1 -4.7,-5.1 -7.8,0 -13.6,11.7 -15.2,19.9 -3.5,4.3 -10.5,9.7 -16.4,9.7 -4.7,0 -6.200004,-4.3 -6.600004,-5.8 14.800004,-5.1 33.100004,-25.3 33.100004,-43.6 0,-3.9 -1.6,-12.5 -13.2,-12.5 -17.5,0 -32.300004,26.1 -32.300004,46.4 -6.2,0 -8.6,-6.6 -8.6,-11.7 0,-5.1 1.9,-10.1 1.9,-11.7 0,-1.6 -0.8,-3.5 -3.1,-3.5 -5.8,0 -9.3,7.8 -9.3,16.8 0.4,12.5 8.6,20.3 19.5,21 1.6,7.4 8.2,14.4 16.400004,14.4 5.1,0 11.3,-1.6 15.6,-5.5 -0.4,2.7 -0.8,5.1 -1.2,7.4 -17.1,9 -29.600004,15.2 -40.900004,25.3 -8.9,8.2 -14,19.1 -14,27.7 0,11.7 7.4,22.6 22.6,22.6 17.900004,0 31.500004,-14.4 38.100004,-34.3 3.1,-9.4 4.4,-23 5.1,-35.4 12.3,-6.8 24.3,-14.4 35.7,-22.6 1,1.8 2.3,3.4 3.9,4.7 -8.2,4.3 -27.6,16.4 -27.6,44.8 0,20.3 13.6,42.9 40.5,42.9 22.2,0 37.4,-18.3 37.4,-35.8 0.1,-16.2 -8.9,-31 -26,-30.9 z m 66.9,33.4 c -0.1,0.1 -0.3,0.3 -0.7,0.2 -0.3,-0.1 -0.4,-0.3 -0.4,-0.5 3,-9.7 4.6,-19.8 4.7,-30 -0.1,-17.1 -7,-27.7 -16,-27.7 -5.5,0 -9.3,3.9 -9.3,9.7 0,10.5 12.8,11.3 12.8,34.3 0,9.4 -1.9,18.3 -5.1,28.1 -14.4,48.7 -60.3,71.3 -105.1,71.3 -20.6,0 -35.3,-4.2 -39.7,-6.2 -0.2,-0.2 -0.3,-0.5 -0.2,-0.8 0.1,-0.3 0.4,-0.5 0.6,-0.4 9.7,3.1 19.8,4.7 29.9,4.7 17.1,0 27.3,-7 27.3,-15.6 0,-5.3 -4.2,-9.7 -9.6,-9.7 -0.1,0 -0.1,0 -0.2,0 -10.5,0 -11.3,13.2 -33.9,13.2 -9.7,0 -18.300004,-1.9 -28.400004,-5.1 -48.3,-14.8 -71.3,-60.4 -71.2,-105.6 0,-13.5 2.1,-26.9 6.3,-39.7 0.2,-0.2 0.5,-0.2 0.7,-0.1 0.3,0.1 0.4,0.4 0.4,0.5 -3,9.7 -4.6,19.8 -4.7,30 0,17.1 7,27.3 16,27.3 5.1,0.1 9.3,-4 9.3,-9.1 0,-0.1 0,-0.2 0,-0.2 0,-10.5 -12.8,-11.7 -12.8,-34.3 0,-9.7 1.9,-18.3 5.1,-28.4 14.8,-48.3 60.3,-71 105.100004,-71.3 20.8,-0.2 39,6.1 39.7,6.6 0.2,0.2 0.2,0.5 0.1,0.7 -0.1,0.4 -0.4,0.4 -0.5,0.4 -0.2,0 -12.1,-5 -30,-5 -16.7,0 -27.2,7 -27.2,16 0,5.1 4.1,9.3 9.3,9.4 0.2,0 0.3,0 0.5,0 10.5,0 11.3,-12.9 33.9,-12.9 9.7,0 18.3,1.9 28.4,5.1 48.7,14.8 70.8,60.8 71.2,105.2 0.1,13.4 -2,27 -6.3,39.9 z M 140.30048,6.6 C 66.300476,6.5 6.3004764,66.5 6.2004764,140.5 c -0.1,74 59.8999996,134.1 133.9000036,134.1 74,0.1 134.1,-59.9 134.1,-133.9 0,0 0,-0.1 0,-0.1 0,-73.9 -59.9,-133.9 -133.9,-134 z m 0,274.7 C 62.600476,281.1 -0.19952362,218 4.7638302e-4,140.3 0.30047638,62.9 63.000476,0.2 140.30048,0 c 77.5,0 140.6,63.1 140.6,140.6 0,77.5 -63.1,140.7 -140.6,140.7 z" /></svg>
