<svg width="70" height="24" viewBox="0 0 70 24" fill="none" xmlns="http://www.w3.org/2000/svg" xmlns:xlink="http://www.w3.org/1999/xlink">
 <path d="M25.9142 4.03869C25.9142 4.57962 25.7538 5.1084 25.4532 5.55813C25.1526 6.00786 24.7254 6.35834 24.2256 6.56523C23.7258 6.77213 23.1759 6.82613 22.6454 6.72042C22.1149 6.61471 21.6277 6.35404 21.2453 5.97137C20.863 5.5887 20.6028 5.10124 20.4976 4.57064C20.3923 4.04004 20.4468 3.49016 20.6542 2.99054C20.8615 2.49093 21.2124 2.06404 21.6624 1.76387C22.1124 1.4637 22.6413 1.30374 23.1822 1.30423C23.907 1.30489 24.6019 1.59327 25.1142 2.10601C25.6265 2.61875 25.9142 3.31389 25.9142 4.03869Z" fill="black">
 </path>
 <path d="M56.7539 20.8604C56.7539 19.8427 57.3814 19.156 58.609 19.156C60.0442 19.156 60.4616 19.6649 60.9705 21.7275C61.1508 22.4438 61.5683 22.8637 62.6996 22.8637C64.2237 22.8637 65.0611 22.0264 65.0611 20.7987C65.0611 19.7242 63.9668 18.8571 61.8499 17.5109C59.518 16.0758 58.2311 14.6999 58.2311 12.6966C58.2311 9.58666 61.6893 7.70441 64.8585 7.70441C68.4155 7.70441 69.7988 9.22849 69.7988 10.6686C69.7988 11.6245 69.1714 12.1334 68.0944 12.1334C66.7482 12.1334 66.3307 11.5949 65.8713 9.98189C65.6613 9.17415 65.2438 8.84562 64.4361 8.84562C63.1516 8.84562 62.2821 9.50268 62.2821 10.6982C62.2821 11.8345 63.4061 12.5533 65.8886 14.107C68.2204 15.4829 69.2677 16.9774 69.2677 18.741C69.2677 21.641 66.1405 24.0049 62.2229 24.0049C58.3052 24.0049 56.7515 22.4191 56.7515 20.8654" fill="black">
 </path>
 <path d="M6.73611 12.373C6.73611 11.2738 7.62289 10.0486 9.37423 10.0486C11.1824 10.0486 11.9753 11.1008 11.9753 12.373V20.2454C11.9753 21.4063 11.9284 21.7843 11.7678 22.2215C11.6394 22.5747 11.3207 22.6686 10.8415 22.797C10.5525 22.8612 10.3919 22.9576 10.3919 23.291C10.3767 23.4049 10.4044 23.5204 10.4697 23.615C10.535 23.7095 10.6332 23.7764 10.7452 23.8024H36.3779C36.825 23.8024 37.2425 23.7703 37.2425 23.2589C37.2425 22.8736 37.0819 22.8415 36.7633 22.7451C36.0914 22.5871 35.3874 22.3944 35.3232 21.5323C35.259 20.8925 35.259 13.6278 35.259 12.3384C35.259 11.212 36.247 10.051 37.818 10.051C39.3298 10.051 40.2067 11.0391 40.2067 12.3754C40.2067 13.6253 40.1844 18.83 40.1844 20.5393C40.1844 21.9843 40.1844 22.4265 39.0333 22.7773C38.7122 22.8736 38.5838 22.9378 38.5838 23.2713C38.5838 23.7826 38.937 23.8147 39.3841 23.8147H45.8065C46.6711 23.8147 46.9576 23.7505 46.9576 23.2071C46.9576 22.8538 46.7353 22.7896 46.3821 22.6933C45.3594 22.4463 45.1989 22.2141 45.1989 21.2878C45.1989 21.2878 45.184 13.6451 45.184 12.3656C45.184 11.0342 46.2857 10.0757 47.711 10.0757C47.711 10.0757 50.0601 9.91517 50.0601 12.5014C50.0601 13.0498 50.1243 20.8728 50.1243 20.8728C50.1243 22.4388 49.7094 22.5352 49.0696 22.7254C48.7163 22.8217 48.5261 22.8859 48.5261 23.2194C48.5261 23.7628 48.909 23.8271 49.2277 23.8271H56.3269C56.7765 23.795 56.8407 23.6023 56.8407 23.3158C56.8407 22.8662 56.6159 22.802 56.233 22.7056C55.2079 22.4586 55.1807 21.9399 55.1807 21.3964V15.0062C55.1807 10.9082 54.9856 10.3672 54.5681 9.63358C53.4492 7.65745 50.6357 7.61793 50.3491 7.61793C48.5503 7.63283 46.8242 8.33033 45.52 9.56935C44.9444 10.1128 44.8802 10.1128 44.816 10.1128C44.6875 10.1128 44.6554 10.0807 44.1762 9.4409C43.2474 8.16136 41.9704 7.65004 40.3697 7.65004C38.611 7.65004 37.2375 8.32193 35.6764 9.72991C35.4541 9.95223 35.3899 9.95223 35.2935 9.95223C35.133 9.95223 35.133 9.82378 35.133 9.50513V8.12925C35.133 7.93905 35.133 7.68216 34.9107 7.68216C34.8143 7.68216 34.7501 7.68216 34.1696 8.03292C32.3466 9.09014 30.2692 9.63358 28.9255 9.92011C28.3499 10.0164 28.1844 10.0486 28.1844 10.4314C28.1844 10.6785 28.2166 10.881 28.5994 10.9452C30.1359 11.1922 30.2569 11.2318 30.289 12.3829V21.1791C30.289 21.389 30.3063 22.8687 28.14 22.8687C25.9737 22.8687 25.8971 21.557 25.8971 21.1395L25.8798 8.34663C25.8798 7.96128 25.8501 7.70439 25.5957 7.70439C25.5315 7.70439 25.4673 7.70439 25.1462 7.92917C23.608 8.83701 21.9355 9.49485 20.191 9.87812C19.2301 10.0708 19.203 10.1029 19.203 10.4216C19.203 10.6686 19.2672 10.9032 19.5883 10.965C20.4825 11.1898 20.853 11.2738 20.853 11.7974V21.431C20.853 21.6089 20.853 22.8662 19.0152 22.8662C17.1774 22.8662 17.0613 21.7768 17.0613 21.431V12.8942C17.0613 11.4244 16.9329 10.0807 16.0733 9.18895C15.0852 8.13419 13.7711 7.6871 12.331 7.6871C10.4117 7.6871 8.74928 8.42814 7.27954 9.66322C6.86208 10.0461 6.79786 10.0461 6.76575 10.0461C6.60766 10.0461 6.60766 9.88553 6.60766 9.53477L6.63977 4.06585V0.711387C6.63977 0.326043 6.63977 0.039505 6.39275 0.039505C6.32853 0.039505 6.26431 0.039505 5.94566 0.264289C4.40645 1.17173 2.73317 1.82954 0.988061 2.21324C0.0296418 2.40591 0 2.43802 0 2.75667C0 3.00369 0.064224 3.23588 0.382874 3.30011C1.27954 3.52489 1.43763 3.54712 1.53396 4.13255C1.59819 4.54753 1.59819 6.64716 1.59819 7.31904V20.4405C1.59819 22.009 1.59819 22.4166 0.543434 22.8069C0.192672 22.9032 0 22.9675 0 23.3009C0 23.8123 0.247015 23.8123 0.832442 23.8123H7.41293C7.98847 23.8123 8.40099 23.7801 8.40099 23.2046C8.40099 22.8835 8.07987 22.8192 7.79333 22.755C6.70646 22.4685 6.61013 22.1474 6.61013 21.3495L6.73611 12.373Z" fill="black">
 </path>
</svg>