<?xml version="1.0" encoding="UTF-8"?>
<!-- Generator: visioncortex VTracer 0.6.12 -->
<svg version="1.1" xmlns="http://www.w3.org/2000/svg" width="3106" height="749" viewBox="0 0 3106 749" role="img" aria-labelledby="title desc">
<title id="title">Hydromancer logo</title>
<desc id="desc">Vectorized white Hydromancer wordmark/logo traced from the official site PNG.</desc>
<path d="M0 0 C2.768 2.422 4.045 4.882 5.539 8.223 C6.028 9.301 6.517 10.38 7.021 11.491 C7.551 12.67 8.08 13.848 8.625 15.062 C19.578 39.096 31.33 62.705 44.595 85.552 C46.323 88.563 47.983 91.609 49.64 94.66 C56.584 107.411 64.316 119.686 72 132 C72.539 132.868 73.078 133.736 73.634 134.63 C88.251 158.155 103.53 181.342 120.647 203.13 C127.297 211.608 133.656 220.292 140 229 C140.566 229.774 141.133 230.548 141.716 231.346 C148.645 240.817 155.371 250.382 161.807 260.195 C162.996 261.995 164.204 263.78 165.418 265.562 C171.85 275.03 177.766 284.768 183.584 294.623 C184.831 296.716 186.101 298.791 187.387 300.859 C200.139 321.584 211.389 344.242 220 367 C220.257 367.676 220.515 368.352 220.78 369.048 C222.642 373.993 224.353 378.98 226 384 C226.282 384.855 226.565 385.711 226.855 386.592 C233.172 405.94 237.958 425.718 240 446 C240.111 447.06 240.222 448.119 240.336 449.211 C243.365 483.681 238.428 517.182 228.332 550.105 C228.123 550.788 227.914 551.47 227.698 552.173 C227 554 227 554 225 557 C223.739 554.477 223.776 552.557 223.641 549.734 C219.998 483.724 195.608 424.545 161 369 C160.504 368.203 160.008 367.406 159.497 366.585 C155.171 359.653 150.806 352.745 146.328 345.91 C141.674 338.802 137.169 331.643 132.852 324.324 C120.967 304.193 107.817 284.855 94 266 C93.503 265.318 93.006 264.636 92.494 263.934 C86.429 255.618 80.297 247.362 74.026 239.201 C55.88 215.573 38.907 190.812 24 165 C23.554 164.235 23.108 163.47 22.648 162.681 C15.053 149.646 7.895 136.418 1 123 C-1.521 125.521 -2.731 128.389 -4.25 131.562 C-14.181 151.786 -25.827 171.061 -38 190 C-38.399 190.621 -38.798 191.242 -39.208 191.882 C-41.413 195.297 -43.691 198.655 -46 202 C-46.488 202.71 -46.975 203.42 -47.478 204.152 C-54.13 213.825 -60.924 223.349 -68.104 232.638 C-73.963 240.217 -79.639 247.927 -85.29 255.662 C-86.925 257.898 -88.568 260.129 -90.211 262.359 C-109.08 288.096 -126.621 315.032 -142 343 C-142.497 343.898 -142.995 344.795 -143.507 345.72 C-151.921 360.999 -158.811 376.699 -165 393 C-165.317 393.828 -165.634 394.656 -165.96 395.509 C-169.542 405.02 -172.002 414.719 -174.25 424.625 C-174.373 425.167 -174.373 425.167 -174.997 427.91 C-178.133 442.368 -179.388 456.492 -179.312 471.25 C-179.31 472.013 -179.308 472.777 -179.306 473.564 C-179.102 518.712 -162.284 561.27 -131 594 C-130.354 594.709 -129.708 595.418 -129.043 596.148 C-124.371 601.097 -119.241 605.337 -113.875 609.5 C-113.55 609.755 -113.55 609.755 -111.906 611.044 C-100.44 619.758 -87.614 626.49 -74.75 632.875 C-74.407 633.046 -74.407 633.046 -72.672 633.91 C-26.534 656.823 23.305 672.198 75.125 672.25 C75.52 672.251 75.52 672.251 77.52 672.254 C91.52 672.249 105.168 671.254 119 669 C119.889 668.856 120.778 668.712 121.694 668.563 C126.476 667.775 131.242 666.923 136 666 C136 666.66 136 667.32 136 668 C134.589 669.078 134.589 669.078 132.582 670.25 C131.833 670.689 131.084 671.127 130.313 671.579 C129.488 672.048 128.663 672.517 127.812 673 C127.386 673.243 127.386 673.243 125.228 674.476 C66.136 707.726 -2.677 715.803 -68 698 C-117.426 683.963 -165.015 654.413 -195 612 C-195.42 611.408 -195.841 610.816 -196.274 610.206 C-202.849 600.852 -208.663 591.107 -214 581 C-214.332 580.381 -214.664 579.761 -215.006 579.123 C-226.232 557.888 -233.186 533.63 -237 510 C-237.183 508.921 -237.367 507.842 -237.555 506.73 C-239.254 495.673 -239.358 484.728 -239.312 473.562 C-239.31 472.587 -239.308 471.611 -239.305 470.605 C-239.247 455.88 -238.832 441.492 -236 427 C-235.774 425.823 -235.549 424.646 -235.316 423.433 C-223.671 364.337 -194.742 310.377 -161 261 C-160.039 259.574 -159.078 258.149 -158.117 256.723 C-150.922 246.081 -143.444 235.684 -135.771 225.384 C-133.992 222.989 -132.224 220.586 -130.461 218.18 C-125.462 211.362 -120.459 204.561 -115.26 197.895 C-102.131 181.025 -90.461 163.032 -79 145 C-78.512 144.235 -78.024 143.47 -77.521 142.682 C-71.303 132.931 -65.163 123.141 -59.287 113.18 C-58.359 111.608 -57.427 110.038 -56.494 108.469 C-42.257 84.52 -29.398 59.969 -16.938 35.062 C-16.438 34.065 -15.939 33.068 -15.425 32.04 C-10.121 21.432 -4.856 10.822 0 0 Z " fill="#FFFFFF" transform="translate(239,0)"/>
<path d="M0 0 C4.991 4.257 8.762 8.487 11.93 14.242 C13.859 16.572 15.441 16.677 18.379 16.992 C18.624 16.269 18.869 15.546 19.121 14.801 C23.327 5.409 32.933 -2.273 42.254 -6.258 C59.364 -12.461 78.984 -11.884 95.592 -4.393 C109.182 2.147 118.552 12.493 123.591 26.818 C125.91 33.766 127.506 40.265 127.499 47.611 C127.5 48.158 127.5 48.158 127.503 50.925 C127.5 52.11 127.496 53.295 127.492 54.515 C127.493 55.774 127.493 57.033 127.493 58.331 C127.493 61.77 127.487 65.21 127.48 68.649 C127.474 72.249 127.473 75.848 127.472 79.448 C127.469 86.258 127.461 93.068 127.451 99.879 C127.44 107.634 127.434 115.39 127.429 123.146 C127.419 139.095 127.401 155.043 127.379 170.992 C125.304 171.157 123.229 171.321 121.154 171.484 C119.998 171.575 118.843 171.667 117.652 171.761 C113.8 172.033 110.006 172.122 106.145 172.125 C105.455 172.126 104.766 172.127 104.055 172.128 C102.63 172.129 101.206 172.127 99.781 172.123 C97.59 172.117 95.398 172.123 93.207 172.129 C91.811 172.128 90.415 172.127 89.02 172.125 C88.393 172.124 88.393 172.124 85.224 172.122 C82.379 171.992 82.379 171.992 81.379 170.992 C81.28 169.461 81.25 167.925 81.248 166.39 C81.246 165.893 81.246 165.893 81.235 163.375 C81.236 162.824 81.236 162.824 81.237 160.038 C81.234 158.885 81.23 157.732 81.227 156.544 C81.219 154.029 81.214 151.514 81.21 148.999 C81.203 145.014 81.188 141.029 81.169 137.043 C81.163 135.678 81.156 134.313 81.15 132.948 C81.147 132.264 81.144 131.581 81.14 130.876 C81.098 121.596 81.065 112.316 81.053 103.037 C81.045 96.781 81.022 90.526 80.984 84.27 C80.964 80.963 80.954 77.656 80.956 74.348 C80.959 70.645 80.937 66.943 80.909 63.241 C80.916 62.16 80.922 61.079 80.929 59.965 C80.833 52.075 79.752 44.025 74.531 37.782 C68.218 31.638 61.512 29.868 52.879 29.617 C44.038 29.874 37.671 31.757 31.168 37.91 C23.206 47.176 22.085 58.567 22.06 70.295 C22.05 71.389 22.04 72.483 22.03 73.609 C21.999 77.197 21.982 80.784 21.965 84.371 C21.946 86.869 21.927 89.368 21.906 91.866 C21.86 97.752 21.823 103.637 21.789 109.523 C21.747 116.889 21.692 124.254 21.637 131.619 C21.54 144.743 21.455 157.868 21.379 170.992 C14.292 171.586 7.258 172.119 0.145 172.125 C-0.545 172.126 -1.234 172.127 -1.945 172.128 C-3.37 172.129 -4.794 172.127 -6.219 172.123 C-8.41 172.117 -10.602 172.123 -12.793 172.129 C-14.189 172.128 -15.585 172.127 -16.98 172.125 C-17.607 172.124 -17.607 172.124 -20.776 172.122 C-23.621 171.992 -23.621 171.992 -24.621 170.992 C-24.72 169.448 -24.75 167.9 -24.752 166.352 C-24.756 165.349 -24.76 164.345 -24.765 163.311 C-24.764 162.201 -24.763 161.09 -24.763 159.946 C-24.766 158.783 -24.77 157.62 -24.773 156.423 C-24.781 153.886 -24.786 151.35 -24.79 148.814 C-24.796 144.795 -24.812 140.776 -24.831 136.757 C-24.837 135.381 -24.844 134.004 -24.85 132.628 C-24.853 131.938 -24.856 131.249 -24.86 130.538 C-24.902 121.18 -24.935 111.822 -24.947 102.464 C-24.955 96.156 -24.978 89.848 -25.016 83.539 C-25.036 80.204 -25.046 76.869 -25.044 73.533 C-25.041 69.799 -25.063 66.066 -25.091 62.333 C-25.084 61.242 -25.078 60.152 -25.071 59.029 C-25.164 51.296 -26.179 43.205 -31.235 37.017 C-37.115 31.318 -44.157 29.84 -52.121 29.617 C-61.431 29.856 -69.124 32.362 -75.746 39.18 C-86.044 54.626 -83.803 74.051 -83.938 91.793 C-83.958 94.084 -83.979 96.374 -84 98.665 C-84.055 104.654 -84.105 110.643 -84.153 116.632 C-84.204 122.759 -84.259 128.886 -84.314 135.014 C-84.422 147.006 -84.523 158.999 -84.621 170.992 C-91.708 171.586 -98.742 172.119 -105.855 172.125 C-106.545 172.126 -107.234 172.127 -107.945 172.128 C-109.37 172.129 -110.794 172.127 -112.219 172.123 C-114.41 172.117 -116.602 172.123 -118.793 172.129 C-120.189 172.128 -121.585 172.127 -122.98 172.125 C-123.607 172.124 -123.607 172.124 -126.776 172.122 C-129.621 171.992 -129.621 171.992 -130.621 170.992 C-130.718 168.701 -130.743 166.407 -130.741 164.114 C-130.742 163.387 -130.743 162.659 -130.744 161.909 C-130.746 159.452 -130.74 156.996 -130.735 154.539 C-130.734 152.785 -130.734 151.031 -130.735 149.277 C-130.735 144.501 -130.729 139.724 -130.722 134.947 C-130.716 129.961 -130.716 124.975 -130.714 119.989 C-130.711 110.54 -130.703 101.091 -130.693 91.642 C-130.682 80.888 -130.676 70.133 -130.671 59.379 C-130.661 37.25 -130.643 15.121 -130.621 -7.008 C-115.771 -7.008 -100.921 -7.008 -85.621 -7.008 C-84.496 3.117 -84.496 3.117 -84.559 7.555 C-84.568 8.402 -84.577 9.249 -84.586 10.121 C-84.598 10.739 -84.609 11.356 -84.621 11.992 C-79.039 10.903 -76.911 8.258 -73.465 4.086 C-56.378 -15.318 -19.641 -15.045 0 0 Z " fill="#FFFFFF" transform="translate(1916.62109375,349.0078125)"/>
<path d="M0 0 C15.84 0 31.68 0 48 0 C48.33 33.99 48.66 67.98 49 103 C78.7 103 108.4 103 139 103 C139.33 69.01 139.66 35.02 140 0 C155.84 0 171.68 0 188 0 C188.022 31.959 188.04 63.918 188.051 95.877 C188.052 99.646 188.054 103.415 188.055 107.184 C188.055 107.559 188.055 107.559 188.056 109.458 C188.06 121.624 188.068 133.79 188.077 145.956 C188.086 158.43 188.092 170.904 188.094 183.379 C188.095 191.082 188.1 198.786 188.108 206.489 C188.114 212.386 188.114 218.283 188.113 224.18 C188.113 226.607 188.115 229.033 188.119 231.46 C188.124 234.757 188.123 238.054 188.12 241.351 C188.122 241.838 188.122 241.838 188.129 244.301 C188.127 245.178 188.125 246.054 188.123 246.957 C188.123 247.719 188.124 248.481 188.124 249.266 C188 251 188 251 187 252 C171.49 252 155.98 252 140 252 C140 217.68 140 183.36 140 148 C109.64 148 79.28 148 48 148 C48.012 155.424 48.023 162.847 48.035 170.496 C48.04 175.186 48.045 179.875 48.049 184.564 C48.055 192.016 48.062 199.467 48.075 206.918 C48.086 212.922 48.092 218.926 48.095 224.93 C48.097 227.227 48.1 229.523 48.106 231.819 C48.113 235.023 48.114 238.227 48.114 241.431 C48.117 242.391 48.121 243.35 48.124 244.339 C48.123 245.207 48.122 246.075 48.12 246.969 C48.121 247.728 48.122 248.487 48.123 249.268 C48 251 48 251 47 252 C31.49 252 15.98 252 0 252 C0 168.84 0 85.68 0 0 Z " fill="#FFFFFF" transform="translate(713,269)"/>
<path d="M0 0 C15.18 0 30.36 0 46 0 C46.061 4.878 46.121 9.756 46.184 14.781 C46.373 29.845 46.58 44.908 46.8 59.971 C46.919 68.122 47.029 76.273 47.115 84.425 C47.156 88.103 47.213 91.78 47.276 95.457 C47.3 97.045 47.317 98.633 47.328 100.221 C47.404 111.228 48.247 123.451 56 132 C64.744 138.558 72.437 141.388 83.312 141.312 C83.733 141.31 83.733 141.31 85.861 141.295 C98.595 141.046 106.338 136.953 115.188 127.938 C124.391 117.179 126.285 102.354 126.319 88.663 C126.329 87.696 126.339 86.729 126.349 85.732 C126.38 82.578 126.397 79.424 126.414 76.27 C126.433 74.066 126.452 71.862 126.473 69.658 C126.524 63.889 126.564 58.121 126.601 52.352 C126.648 45.413 126.71 38.475 126.769 31.536 C126.857 21.024 126.927 10.512 127 0 C142.18 0 157.36 0 173 0 C173.068 28.251 173.123 56.502 173.155 84.753 C173.171 97.871 173.192 110.988 173.226 124.106 C173.256 135.541 173.276 146.975 173.282 158.41 C173.286 164.463 173.295 170.517 173.317 176.57 C173.338 182.271 173.344 187.972 173.339 193.673 C173.34 195.762 173.346 197.851 173.358 199.94 C173.373 202.801 173.369 205.661 173.361 208.521 C173.37 209.34 173.378 210.16 173.387 211.003 C173.305 221.74 169.521 231.677 162.441 239.785 C155.264 246.515 145.602 250.13 135.843 250.12 C134.826 250.122 133.81 250.123 132.763 250.124 C131.658 250.121 130.554 250.117 129.417 250.114 C128.246 250.114 127.074 250.114 125.868 250.114 C121.999 250.113 118.13 250.105 114.262 250.098 C111.578 250.096 108.895 250.094 106.212 250.093 C99.873 250.09 93.533 250.082 87.194 250.072 C79.975 250.061 72.756 250.055 65.537 250.05 C50.692 250.04 35.846 250.022 21 250 C21 236.8 21 223.6 21 210 C25.191 209.939 29.381 209.879 33.699 209.816 C46.698 209.627 59.696 209.419 72.695 209.2 C79.983 209.077 87.272 208.968 94.561 208.885 C98.02 208.843 101.479 208.786 104.938 208.724 C106.471 208.7 108.003 208.682 109.536 208.672 C111.613 208.657 113.689 208.619 115.766 208.574 C116.887 208.56 118.009 208.545 119.165 208.53 C122.717 207.866 123.903 206.918 126 204 C126.546 201.524 126.546 201.524 126.609 198.73 C126.642 197.687 126.674 196.643 126.707 195.568 C126.721 194.452 126.735 193.337 126.75 192.188 C126.779 191.044 126.808 189.9 126.838 188.721 C127.092 177.483 127.105 166.24 127 155 C125.35 155 123.7 155 122 155 C121.753 155.723 121.505 156.446 121.25 157.191 C116.896 166.975 107.676 173.172 98.133 177.215 C79.685 184.239 56.661 183.266 38.637 175.562 C21.382 167.128 10.236 152.854 3.926 134.965 C0.576 124.236 -0.152 113.707 -0.114 102.513 C-0.114 101.4 -0.114 100.287 -0.114 99.14 C-0.113 95.488 -0.106 91.836 -0.098 88.184 C-0.096 85.641 -0.094 83.098 -0.093 80.554 C-0.09 74.562 -0.082 68.57 -0.072 62.578 C-0.061 55.751 -0.055 48.924 -0.05 42.097 C-0.04 28.064 -0.022 14.032 0 0 Z " fill="#FFFFFF" transform="translate(954,342)"/>
<path d="M0 0 C15.18 0 30.36 0 46 0 C46 82.83 46 165.66 46 251 C31.375 252.125 31.375 252.125 24.73 252.098 C24.385 252.097 24.385 252.097 22.634 252.093 C20.485 252.088 18.336 252.075 16.188 252.062 C14.705 252.057 13.223 252.053 11.74 252.049 C8.16 252.039 4.58 252.019 1 252 C1 244.74 1 237.48 1 230 C-5 231 -5 231 -6.617 232.602 C-7.032 233.269 -7.447 233.937 -7.875 234.625 C-16.191 246.689 -28.617 253.031 -42.757 255.648 C-65.583 259.23 -88.354 255.591 -107.547 242.227 C-126.941 227.47 -137.497 206.909 -141 183 C-141.487 177.875 -141.693 172.771 -141.812 167.625 C-141.831 166.951 -141.849 166.277 -141.867 165.583 C-142.561 138.766 -137.184 112.622 -119 92 C-116.485 89.426 -113.865 87.175 -111 85 C-110.252 84.417 -109.505 83.835 -108.734 83.234 C-89.956 69.302 -67.686 65.828 -44.855 68.391 C-30.199 70.826 -17.346 77.736 -7.5 88.812 C-6 91 -6 91 -6 93 C-4.02 93 -2.04 93 0 93 C0 62.31 0 31.62 0 0 Z M-82.375 121.562 C-95.707 136.081 -95.821 154.335 -95.191 172.88 C-94.481 184.474 -89.984 195.037 -81.711 203.281 C-69.807 213.409 -56.366 217.054 -41.009 216.191 C-29.261 215.074 -18.698 209.185 -10.625 200.75 C-0.131 188.002 2.179 171.052 1 155 C-0.267 142.855 -3.218 130.152 -13 122 C-13.55 121.45 -14.101 120.899 -14.668 120.332 C-33.195 102.416 -63.953 105.117 -82.375 121.562 Z " fill="#FFFFFF" transform="translate(1316,269)"/>
<path d="M0 0 C5.324 4.107 10.013 8.569 14 14 C14 14.66 14 15.32 14 16 C15.98 16.33 17.96 16.66 20 17 C19.988 15.831 19.977 14.662 19.965 13.457 C19.955 11.909 19.946 10.361 19.938 8.812 C19.929 8.044 19.921 7.275 19.912 6.482 C19.909 5.732 19.906 4.981 19.902 4.207 C19.897 3.521 19.892 2.835 19.886 2.128 C20 0 20 0 21 -5 C35.85 -5 50.7 -5 66 -5 C66.025 -0.962 66.05 3.077 66.076 7.237 C66.159 20.561 66.248 33.884 66.339 47.207 C66.395 55.287 66.448 63.367 66.497 71.447 C66.54 78.489 66.586 85.531 66.637 92.573 C66.663 96.302 66.688 100.032 66.709 103.761 C66.732 107.922 66.763 112.084 66.795 116.245 C66.8 117.484 66.806 118.722 66.812 119.999 C66.817 120.565 66.817 120.565 66.842 123.432 C66.848 124.416 66.855 125.401 66.861 126.415 C66.99 128.806 67.12 130.772 68 133 C74.986 135.329 82.647 134.613 90 135 C90 147.87 90 160.74 90 174 C83.771 174.041 77.543 174.082 71.125 174.125 C69.18 174.143 67.235 174.161 65.231 174.18 C39.824 174.322 39.824 174.322 30.176 165.293 C25.336 159.914 23.846 155.189 23 148 C21.35 147.34 19.7 146.68 18 146 C17.75 146.88 17.5 147.761 17.242 148.668 C13.165 159.604 2.451 168.114 -7.637 173.375 C-10.068 174.413 -12.464 175.255 -15 176 C-15.718 176.211 -16.436 176.423 -17.176 176.641 C-39.919 182.14 -63.832 178.641 -84 167 C-87.211 164.875 -90.118 162.551 -93 160 C-93.812 159.282 -94.624 158.564 -95.461 157.824 C-112.489 141.818 -121.212 119.021 -122.124 95.85 C-122.853 63.038 -118.987 35.624 -95.797 10.625 C-71.661 -13.018 -28.544 -17.904 0 0 Z M-60 42 C-60.648 42.523 -61.297 43.047 -61.965 43.586 C-71.697 52.317 -75.203 65.379 -76 78 C-76.669 93.6 -75.027 109.612 -64.773 122.129 C-55.776 131.622 -44.643 137.238 -31.539 138.273 C-16.899 138.653 -4 135.33 7 125 C20.371 110.319 20.721 92.922 20.179 74.09 C19.455 61.605 14.264 50.778 5.25 42.188 C-13.552 26.185 -41.119 26.567 -60 42 Z " fill="#FFFFFF" transform="translate(2212,347)"/>
<path d="M0 0 C0.847 0.472 1.694 0.944 2.566 1.43 C13.382 7.969 21.961 18.042 28 29 C28.521 29.887 29.042 30.774 29.578 31.688 C40.65 51.818 40 73.381 40 96 C-2.57 96 -45.14 96 -89 96 C-84.231 113.884 -84.231 113.884 -80 119 C-79.447 119.674 -78.894 120.348 -78.324 121.043 C-70.633 129.531 -59.958 134.497 -48.598 135.215 C-37.31 135.501 -25.948 134.528 -17 127 C-11.754 121.872 -7.68 116.325 -4 110 C0.501 110.623 4.204 112.402 8.199 114.457 C8.875 114.801 9.552 115.146 10.248 115.5 C11.671 116.227 13.092 116.958 14.512 117.692 C16.684 118.811 18.866 119.911 21.049 121.01 C22.433 121.72 23.816 122.432 25.199 123.145 C25.525 123.308 25.525 123.308 27.175 124.133 C29.815 125.517 31.746 126.64 33.482 129.097 C34 131 34 131 33.086 133.305 C19.492 153.726 2.256 169.489 -22.294 174.902 C-47.795 179.797 -75.832 177.225 -98 163 C-101.528 160.525 -104.789 157.872 -108 155 C-108.844 154.25 -109.689 153.5 -110.559 152.727 C-126.432 137.795 -135.169 115.51 -136.14 93.878 C-136.98 63.764 -133.77 36.182 -112.234 13.273 C-111.497 12.523 -110.76 11.773 -110 11 C-109.386 10.374 -108.773 9.747 -108.141 9.102 C-79.966 -17.507 -32.309 -18.875 0 0 Z M-76.875 38.375 C-77.576 39.241 -78.278 40.108 -79 41 C-79.5 41.597 -80 42.194 -80.516 42.809 C-84.996 48.388 -88 53.658 -88 61 C-61.27 61 -34.54 61 -7 61 C-10.291 47.834 -14.584 39.846 -26.02 32.746 C-42.232 24.595 -62.966 26.885 -76.875 38.375 Z " fill="#FFFFFF" transform="translate(2913,349)"/>
<path d="M0 0 C5.866 5.18 11.413 10.498 15.578 17.168 C16.223 18.171 16.867 19.174 17.531 20.207 C31.934 43.439 34.573 74.382 28.891 100.793 C27.203 107.899 24.821 114.616 21.578 121.168 C21.149 122.087 20.72 123.006 20.277 123.953 C16.531 131.456 11.429 137.215 5.578 143.168 C4.751 144.019 3.923 144.87 3.07 145.746 C-15.336 163.633 -41.556 169.123 -66.422 169.168 C-87.855 168.419 -110.135 162.746 -126.422 148.168 C-127.166 147.565 -127.909 146.961 -128.676 146.34 C-144.876 132.853 -153.463 112.663 -156.422 92.168 C-157.952 61.115 -156.384 32.403 -134.633 7.969 C-128.031 0.875 -120.995 -4.251 -112.422 -8.832 C-111.565 -9.301 -110.707 -9.77 -109.824 -10.254 C-76.915 -26.734 -28.582 -24.276 0 0 Z M-99.418 36.629 C-110.444 50.599 -111.806 68.045 -110.422 85.168 C-108.735 98.59 -103.342 109.71 -92.812 118.449 C-81.094 126.875 -68.452 128.406 -54.422 127.168 C-42.318 124.944 -32.091 118.823 -24.422 109.168 C-17.374 97.573 -16.077 87.64 -16.109 74.293 C-16.093 72.982 -16.077 71.671 -16.061 70.32 C-16.053 55.545 -19.789 44.323 -29.93 33.5 C-39.956 24.118 -52.519 20.806 -65.949 20.957 C-79.019 21.751 -90.471 27.057 -99.418 36.629 Z " fill="#FFFFFF" transform="translate(1708.421875,356.83203125)"/>
<path d="M0 0 C14.569 12.024 22.205 27.695 25.527 46.086 C25.892 50.29 25.91 54.452 25.868 58.669 C25.868 59.851 25.869 61.033 25.869 62.251 C25.867 66.109 25.844 69.966 25.82 73.824 C25.813 76.518 25.81 79.213 25.807 81.907 C25.798 88.243 25.774 94.578 25.743 100.913 C25.71 108.135 25.693 115.356 25.678 122.578 C25.647 137.414 25.594 152.25 25.527 167.086 C18.44 167.68 11.406 168.212 4.293 168.219 C3.603 168.22 2.914 168.221 2.204 168.222 C0.779 168.222 -0.646 168.221 -2.07 168.216 C-4.262 168.211 -6.453 168.216 -8.645 168.223 C-10.04 168.222 -11.436 168.221 -12.832 168.219 C-13.458 168.218 -13.458 168.218 -16.628 168.215 C-19.473 168.086 -19.473 168.086 -20.473 167.086 C-20.572 165.646 -20.602 164.2 -20.604 162.757 C-20.608 161.822 -20.612 160.887 -20.616 159.924 C-20.616 158.89 -20.615 157.855 -20.615 156.79 C-20.618 155.707 -20.621 154.624 -20.625 153.508 C-20.632 151.145 -20.638 148.783 -20.641 146.42 C-20.648 142.674 -20.664 138.928 -20.683 135.181 C-20.735 124.526 -20.783 113.871 -20.799 103.215 C-20.809 96.704 -20.838 90.193 -20.88 83.682 C-20.892 81.205 -20.897 78.728 -20.895 76.251 C-20.893 72.769 -20.915 69.288 -20.943 65.805 C-20.936 64.794 -20.929 63.782 -20.923 62.739 C-21.048 53.002 -23.366 42.211 -30.473 35.086 C-38.575 27.918 -49.258 25.415 -59.938 25.797 C-71.128 27.073 -80.8 30.413 -88.586 38.703 C-100.476 53.719 -99.923 72.168 -99.949 90.293 C-99.964 92.513 -99.979 94.732 -99.996 96.952 C-100.038 102.75 -100.063 108.547 -100.084 114.345 C-100.12 123.67 -100.181 132.994 -100.242 142.318 C-100.262 145.574 -100.273 148.829 -100.284 152.085 C-100.294 154.062 -100.304 156.038 -100.315 158.015 C-100.315 158.47 -100.315 158.47 -100.318 160.771 C-100.359 166.972 -100.359 166.972 -101.473 168.086 C-116.323 168.086 -131.173 168.086 -146.473 168.086 C-146.473 109.016 -146.473 49.946 -146.473 -10.914 C-131.623 -10.914 -116.773 -10.914 -101.473 -10.914 C-101.473 -3.324 -101.473 4.266 -101.473 12.086 C-99.493 12.086 -97.513 12.086 -95.473 12.086 C-95.214 11.351 -94.954 10.616 -94.688 9.859 C-90.884 1.176 -82.733 -4.778 -74.473 -8.914 C-50.234 -18.219 -20.847 -16.091 0 0 Z " fill="#FFFFFF" transform="translate(2488.47265625,352.9140625)"/>
<path d="M0 0 C14.856 12.701 26.537 29.902 28.229 49.782 C28.277 50.432 28.325 51.081 28.375 51.75 C23.396 52.876 18.415 53.997 13.434 55.113 C11.742 55.493 10.05 55.874 8.359 56.257 C5.917 56.809 3.474 57.356 1.031 57.902 C0.285 58.072 -0.461 58.242 -1.23 58.417 C-6.016 59.481 -10.752 60.208 -15.625 60.75 C-15.795 60.216 -15.965 59.683 -16.141 59.133 C-16.944 56.663 -17.785 54.208 -18.625 51.75 C-18.88 50.934 -19.135 50.118 -19.398 49.277 C-22.753 39.569 -29.344 32.18 -38.566 27.641 C-52.142 21.767 -65.922 22.778 -79.625 27.75 C-91.554 33.649 -98.076 41.972 -102.566 54.344 C-107.396 70.21 -107.012 89.659 -99.625 104.75 C-94.335 114.635 -86.388 122.26 -75.625 125.75 C-69.955 127.387 -64.832 128.138 -58.938 128.125 C-58.157 128.123 -57.377 128.122 -56.573 128.12 C-44.656 127.871 -34.86 124.323 -26.562 115.688 C-20.325 108.438 -17.432 99.761 -14.625 90.75 C-5.105 92.295 4.206 94.571 13.562 96.875 C15.102 97.252 16.642 97.628 18.182 98.004 C21.914 98.916 25.645 99.832 29.375 100.75 C27.195 119.465 17.522 134.758 4.375 147.75 C4.047 148.083 4.047 148.083 2.387 149.77 C-15.245 166.495 -40.213 170.812 -63.625 170.75 C-85.763 170.036 -108.124 162.891 -124.625 147.75 C-125.38 147.086 -126.136 146.422 -126.914 145.738 C-142.817 130.955 -151.209 109.105 -152.535 87.66 C-152.565 86.7 -152.594 85.739 -152.625 84.75 C-152.665 83.491 -152.705 82.231 -152.746 80.934 C-153.299 54.24 -148.091 28.957 -129.594 8.75 C-97.374 -24.666 -36.397 -28.674 0 0 Z " fill="#FFFFFF" transform="translate(2712.625,355.25)"/>
<path d="M0 0 C2.438 0.062 2.438 0.062 5 1 C8.294 5.317 9.24 10.158 10.453 15.34 C10.908 17.216 11.364 19.093 11.819 20.97 C12.053 21.946 12.287 22.921 12.527 23.927 C28.227 89.321 28.227 89.321 42.887 98.883 C49.281 102.314 55.874 104.742 62.781 106.895 C63.603 107.152 64.426 107.41 65.273 107.675 C73.379 110.178 81.563 112.324 89.791 114.384 C92.321 115.018 94.849 115.66 97.377 116.303 C103.55 117.874 109.726 119.437 115.908 120.972 C119.107 121.766 122.304 122.57 125.5 123.375 C126.387 123.589 127.274 123.803 128.188 124.023 C133.376 125.337 137.47 127.138 142 130 C131.868 141.585 106.15 143.346 91.957 146.841 C43.471 158.809 43.471 158.809 33 174 C31.778 176.422 30.647 178.803 29.578 181.289 C29.276 181.988 28.974 182.686 28.663 183.406 C25.488 190.933 23.158 198.649 20.938 206.5 C20.509 207.987 20.08 209.473 19.65 210.959 C16.622 221.506 13.823 232.105 11.254 242.773 C11.151 243.194 11.151 243.194 10.629 245.319 C10.169 247.278 9.749 249.247 9.351 251.22 C9.12 252.294 8.89 253.369 8.652 254.477 C8.455 255.46 8.258 256.443 8.054 257.456 C7 260 7 260 4.647 261.97 C2 263 2 263 -0.193 262.517 C-2.643 260.46 -3.052 258.81 -3.914 255.73 C-4.244 254.558 -4.575 253.385 -4.915 252.177 C-7.425 242.631 -9.752 233.038 -12.067 223.443 C-24.099 173.694 -24.099 173.694 -36.586 164.438 C-45.049 159.398 -53.669 155.909 -63.145 153.266 C-63.59 153.14 -63.59 153.14 -65.847 152.503 C-80.159 148.508 -94.588 144.935 -108.996 141.305 C-112.854 140.333 -116.708 139.348 -120.562 138.363 C-121.739 138.069 -122.916 137.776 -124.129 137.473 C-125.222 137.192 -126.315 136.912 -127.441 136.622 C-127.919 136.501 -127.919 136.501 -130.338 135.89 C-133.189 134.937 -135.486 133.634 -138 132 C-137.969 130.157 -137.969 130.157 -137 128 C-134.447 126.926 -132.157 126.169 -129.496 125.48 C-128.732 125.27 -127.968 125.06 -127.181 124.843 C-119.936 122.889 -112.617 121.303 -105.274 119.776 C-40.127 106.116 -40.127 106.116 -30.312 92.75 C-24.756 81.833 -21.074 70.375 -17.562 58.688 C-17.323 57.897 -17.083 57.107 -16.836 56.293 C-12.89 43.276 -9.286 30.199 -6 17 C-5.261 14.06 -4.509 11.123 -3.75 8.188 C-3.456 7.026 -3.162 5.865 -2.859 4.668 C-2 2 -2 2 0 0 Z " fill="#FFFFFF" transform="translate(419,486)"/>
<path d="M0 0 C1.122 0.002 2.244 0.005 3.4 0.008 C4.807 0.017 6.214 0.026 7.664 0.035 C9.912 0.045 9.912 0.045 21.289 0.098 C21.289 13.958 21.289 27.818 21.289 42.098 C5.539 42.348 5.539 42.348 0.649 42.396 C-9.766 42.639 -19.149 43.605 -27.711 50.098 C-28.371 50.098 -29.031 50.098 -29.711 50.098 C-29.958 50.655 -30.206 51.211 -30.461 51.785 C-31.711 54.098 -31.711 54.098 -33.651 56.413 C-42.209 67.566 -40.316 83.535 -40.32 96.773 C-40.335 99.154 -40.352 101.534 -40.37 103.915 C-40.414 110.14 -40.434 116.366 -40.449 122.591 C-40.469 128.96 -40.511 135.329 -40.551 141.697 C-40.626 154.164 -40.676 166.631 -40.711 179.098 C-47.798 179.692 -54.832 180.224 -61.945 180.23 C-62.635 180.231 -63.324 180.232 -64.035 180.233 C-65.459 180.234 -66.884 180.232 -68.309 180.228 C-70.5 180.223 -72.691 180.228 -74.883 180.234 C-76.279 180.234 -77.674 180.232 -79.07 180.23 C-79.697 180.23 -79.697 180.23 -82.866 180.227 C-85.711 180.098 -85.711 180.098 -86.711 179.098 C-86.808 176.807 -86.833 174.513 -86.831 172.22 C-86.832 171.492 -86.833 170.764 -86.834 170.015 C-86.835 167.558 -86.83 165.101 -86.824 162.644 C-86.824 160.89 -86.824 159.137 -86.825 157.383 C-86.825 152.606 -86.819 147.83 -86.812 143.053 C-86.806 138.067 -86.805 133.081 -86.804 128.094 C-86.801 118.645 -86.793 109.196 -86.783 99.748 C-86.772 88.993 -86.766 78.239 -86.761 67.484 C-86.751 45.356 -86.732 23.227 -86.711 1.098 C-71.861 1.098 -57.011 1.098 -41.711 1.098 C-41.381 7.698 -41.051 14.298 -40.711 21.098 C-35.711 20.098 -35.711 20.098 -34.227 18.023 C-33.809 17.161 -33.391 16.299 -32.961 15.41 C-28.437 7.291 -21.354 3.79 -12.711 1.098 C-8.42 0.233 -4.373 -0.02 0 0 Z " fill="#FFFFFF" transform="translate(1504.7109375,340.90234375)"/>
<path d="M0 0 C14.85 0 29.7 0 45 0 C45 6.6 45 13.2 45 20 C46.98 20 48.96 20 51 20 C51.093 19.587 51.093 19.587 51.562 17.5 C54.773 9.683 60.135 5.41 67.668 1.91 C72.36 0.079 76.598 -0.135 81.609 -0.098 C82.254 -0.097 82.899 -0.096 83.563 -0.095 C85.959 -0.089 88.354 -0.075 90.75 -0.062 C93.431 -0.052 93.431 -0.052 107 0 C107 13.2 107 26.4 107 40 C91.625 40.812 91.625 40.812 86.838 41.046 C74.6 41.754 64.32 43.436 55 52 C47.784 61.02 46.704 70.615 46.697 81.828 C46.693 82.35 46.693 82.35 46.671 84.99 C46.646 88.41 46.634 91.83 46.621 95.25 C46.605 97.634 46.588 100.017 46.57 102.401 C46.524 108.654 46.489 114.908 46.457 121.161 C46.405 131.198 46.341 141.235 46.269 151.272 C46.246 154.783 46.23 158.293 46.214 161.804 C46.201 163.938 46.187 166.073 46.174 168.207 C46.172 168.698 46.172 168.698 46.166 171.185 C46.162 171.63 46.162 171.63 46.145 173.878 C46.143 174.266 46.143 174.266 46.133 176.231 C46 178 46 178 45 179 C43.624 179.098 42.243 179.128 40.863 179.129 C40.424 179.131 40.424 179.131 38.204 179.139 C37.25 179.137 36.296 179.135 35.312 179.133 C34.826 179.133 34.826 179.133 32.365 179.136 C30.303 179.136 28.242 179.135 26.181 179.13 C23.014 179.125 19.847 179.13 16.68 179.137 C14.682 179.136 12.685 179.135 10.688 179.133 C9.733 179.135 8.779 179.137 7.796 179.139 C6.919 179.136 6.041 179.133 5.137 179.129 C4.36 179.129 3.584 179.128 2.784 179.127 C1 179 1 179 0 178 C-0.097 175.709 -0.122 173.415 -0.12 171.122 C-0.121 170.394 -0.122 169.667 -0.123 168.917 C-0.125 166.46 -0.119 164.003 -0.114 161.547 C-0.113 159.793 -0.113 158.039 -0.114 156.285 C-0.114 151.509 -0.108 146.732 -0.101 141.955 C-0.095 136.969 -0.095 131.983 -0.093 126.997 C-0.09 117.548 -0.082 108.099 -0.072 98.65 C-0.061 87.896 -0.055 77.141 -0.05 66.387 C-0.04 44.258 -0.022 22.129 0 0 Z " fill="#FFFFFF" transform="translate(2999,342)"/>
</svg>
