<svg width="91" height="28" viewBox="0 0 91 28" fill="none" xmlns="http://www.w3.org/2000/svg" role="img" aria-labelledby="title desc">
<title id="title">HyperDash logo</title>
<desc id="desc">Dark HyperDash wordmark variant for light README backgrounds; extracted from hyperdash.com inline SVG.</desc>
<path d="M6.05896 18.8735V14.653H1.71739V18.8735H0V9.12646H1.71739V13.182H6.05896V9.12646H7.77635V18.8735H6.05896Z" fill="#0B151B"></path><path d="M18.072 9.12646L14.4037 15.4916V18.8735H12.6863V15.4916L9.03165 9.12646H10.9414L13.5656 13.6357L16.1485 9.12646H18.072Z" fill="#0B151B"></path><path d="M24.1862 9.12646C25.9586 9.12646 26.7692 9.91008 26.7692 11.601V12.7283C26.7692 14.4193 25.9586 15.2029 24.1862 15.2029H21.0262V18.8735H19.3088V9.12646H24.1862ZM21.0262 13.7182H23.7054C24.7083 13.7182 25.0518 13.402 25.0518 12.4671V11.8622C25.0518 10.9274 24.7083 10.6112 23.7054 10.6112H21.0262V13.7182Z" fill="#0B151B"></path><path d="M34.9869 10.6112H29.8622V13.127H34.4099V14.598H29.8622V17.4025H34.9869V18.8735H28.1448V9.12646H34.9869V10.6112Z" fill="#0B151B"></path><path d="M36.5514 18.8735V9.12646H41.4563C43.2149 9.12646 44.0393 9.91008 44.0393 11.601V12.6596C44.0393 14.1581 43.3798 14.9417 42.0059 15.0929L44.8774 18.8735H42.8577L39.9313 15.1204H38.2688V18.8735H36.5514ZM38.2688 13.6357H40.9617C41.9784 13.6357 42.3219 13.3332 42.3219 12.3984V11.8622C42.3219 10.9274 41.9784 10.6112 40.9617 10.6112H38.2688V13.6357Z" fill="#0B151B"></path><path d="M51.0302 9.12646C52.7888 9.12646 53.6132 9.91008 53.6132 11.601V16.4127C53.6132 18.0899 52.7888 18.8735 51.0302 18.8735H46.1254V9.12646H51.0302ZM51.8958 11.8622C51.8958 10.9274 51.5523 10.6112 50.5356 10.6112H47.8428V17.4025H50.5356C51.5523 17.4025 51.8958 17.0863 51.8958 16.1515V11.8622Z" fill="#0B151B"></path><path d="M54.3922 18.8735L57.7308 9.12646H60.2176L63.57 18.8735H61.7976L60.9321 16.289H57.0164L56.1508 18.8735H54.3922ZM57.5248 14.818H60.4375L58.9811 10.4875L57.5248 14.818Z" fill="#0B151B"></path><path d="M66.8984 19.011C65.126 19.011 64.3017 18.2274 64.3017 16.5639C64.3017 16.4677 64.3017 16.4539 64.3154 16.4127L66.0191 16.2065V16.3027C66.0191 17.2238 66.3626 17.54 67.3793 17.54H69.0554C70.0584 17.54 70.4019 17.2238 70.4019 16.289V16.0553C70.4019 15.2991 70.1408 15.0792 69.0692 14.928L66.6923 14.5843C64.9749 14.3368 64.3567 13.7457 64.3567 12.3159V11.4636C64.3567 9.7726 65.181 8.98898 66.9396 8.98898H69.4813C71.2537 8.98898 72.0643 9.7726 72.0643 11.4361V11.5873L70.3469 11.7935V11.6973C70.3469 10.7899 70.0034 10.4737 69.0005 10.4737H67.448C66.4313 10.4737 66.074 10.7899 66.074 11.7248V11.8897C66.074 12.6596 66.3076 12.8521 67.4205 13.017L69.7973 13.3607C71.5285 13.6082 72.1193 14.1993 72.1193 15.6428V16.5502C72.1193 18.2274 71.3087 19.011 69.5363 19.011H66.8984Z" fill="#0B151B"></path><path d="M80.0071 18.8735V14.653H75.6656V18.8735H73.9482V9.12646H75.6656V13.182H80.0071V9.12646H81.7245V18.8735H80.0071Z" fill="#0B151B"></path><path d="M83.4793 8.98898H91V19.011H83.4793V8.98898Z" fill="#ED3602"></path></svg>
