<?xml version="1.0" encoding="UTF-8"?>
<svg id="logosandtypes_com" data-name="logosandtypes com" xmlns="http://www.w3.org/2000/svg" viewBox="0 0 150 150">
  <defs>
    <style>
      .cls-1 {
        fill: none;
      }

      .cls-2 {
        fill: #d52b1e;
        fill-rule: evenodd;
      }
    </style>
  </defs>
  <g id="Layer_3" data-name="Layer 3">
    <path id="Layer_3-2" data-name="Layer 3" class="cls-1" d="M0,0H150V150H0V0Z"/>
  </g>
  <g id="_d52b1eff" data-name="#d52b1eff">
    <path id="Layer" class="cls-2" d="M136.24,22.89c2.89-.08,6.02,.73,7.95,3,5.17,6.24-.42,17.68-4.31,23.44-13.6,19.24-35.36,33.92-58.52,38.56-7.18,9.87-14.78,19.61-24.29,27.36,5.75,3.21,12.59,5.01,19.1,3.36,12.15-3.13,21.24-12.63,29.87-21.2,2.22,1.71,4.41,3.46,6.62,5.18-.87,1.11-1.64,2.31-2.65,3.29-1.13,1.18-2.21,2.41-3.35,3.57-3.02,2.72-6.09,5.39-9.25,7.95-8.2,5.77-17.72,10.67-27.98,10.7-7.63,.18-15.11-2.43-21.4-6.67-6.05,3.29-12.72,5.52-19.58,6.27-8.08,.96-18.1,.74-23.6-6.16-7.55-12.33,6.03-20.75,17.34-20.55,9.28-.1,18.46,3.13,26.03,8.44,7.02-5.72,12.98-12.6,18.56-19.69-12.14,.57-25.92-1.15-34.76-10.31-4.29-4.26-5.93-10.64-5.02-16.54,3.42-18.86,26.41-29.93,43.83-31.85,1.23,2.78,2.59,5.5,3.83,8.28-10.37,1.27-20.67,4.89-28.84,11.52-4.41,3.78-8.68,8.99-8.37,15.12,.93,10.51,13.52,14.2,22.44,14.8,4.7,.43,9.43,0,14.11-.59,.93-1.46,2.01-2.82,3.01-4.24,12.7-16.87,36.79-52.12,59.25-53.05Zm-8.02,12.35c-2.67,1.54-5.09,3.46-7.43,5.45-11.94,10.4-21.96,22.82-31.25,35.59,3.26-1.08,6.46-2.39,9.5-3.99,13.34-6.98,25.88-17.84,33.52-30.91,3.18-5.78,3.36-10.41-4.34-6.14ZM17.79,110.07c-2.83,.56-6.47,3.22-4.63,6.4,1.54,2.16,4.46,2.69,6.94,2.95,6.63,.49,13.21-1.28,19.13-4.2-.38-.28-.77-.57-1.18-.81-2.56-1.51-5.27-2.8-8.13-3.61-3.9-1.21-8.12-1.66-12.12-.73Z"/>
  </g>
</svg>