<svg xmlns="http://www.w3.org/2000/svg" viewBox="0 0 20.847799 24" id="svg1" width="20.847799" height="24" fill="#000"><defs id="defs1" /><path d="M 10.4239,0 C 4.65323,0 0,4.48645 0,10.47394 c 0,6.00417 4.65323,10.47394 10.4239,10.47394 0.98402,0 1.93468,-0.13343 2.8353,-0.3836 l 1.13412,2.9187 C 14.51007,23.79986 14.74357,24 15.16052,24 h 1.80125 c 0.43364,0 0.75052,-0.28353 0.55038,-0.83391 L 16.04447,19.34677 C 18.92981,17.52884 20.8478,14.30994 20.8478,10.45727 20.8478,4.48644 16.19457,0 10.4239,0 m 4.53648,16.5615 -1.31758,-3.41904 c -0.11675,-0.28353 -0.35024,-0.55038 -0.85059,-0.55038 h -1.71786 c -0.43363,0 -0.7672,0.28353 -0.56706,0.83391 l 1.73454,4.48645 c -0.56706,0.1501 -1.18416,0.21682 -1.81793,0.21682 -4.2196,0 -7.22168,-3.31897 -7.22168,-7.65532 0,-4.33634 3.00208,-7.65532 7.22168,-7.65532 4.2196,0 7.22168,3.31898 7.22168,7.65532 0,2.5351 -1.01737,4.70327 -2.6852,6.08756" id="path1" /></svg>
