<svg xmlns="http://www.w3.org/2000/svg" viewBox="0 0 24 24" id="svg1" width="24" height="24" fill="#000"><defs id="defs1" /><path d="M 12,0 C 5.373,0 0,5.373 0,12 c 0,3.314 1.343,6.314 3.515,8.485 L 1.229,22.771 C 0.775,23.225 1.097,24 1.738,24 H 12 C 18.627,24 24,18.627 24,12 24,5.373 18.627,0 12,0 Z m 4.388,3.199 c 1.104,0 1.999,0.895 1.999,1.999 0,1.105 -0.895,2 -1.999,2 -0.946,0 -1.739,-0.657 -1.947,-1.539 v 0.002 c -1.147,0.162 -2.032,1.15 -2.032,2.341 v 0.007 c 1.776,0.067 3.4,0.567 4.686,1.363 0.473,-0.363 1.064,-0.58 1.707,-0.58 1.547,0 2.802,1.254 2.802,2.802 0,1.117 -0.655,2.081 -1.601,2.531 -0.088,3.256 -3.637,5.876 -7.997,5.876 -4.361,0 -7.905,-2.617 -7.998,-5.87 -0.954,-0.447 -1.614,-1.415 -1.614,-2.538 0,-1.548 1.255,-2.802 2.803,-2.802 0.645,0 1.239,0.218 1.712,0.585 1.275,-0.79 2.881,-1.291 4.64,-1.365 v -0.01 c 0,-1.663 1.263,-3.034 2.88,-3.207 0.188,-0.911 0.993,-1.595 1.959,-1.595 z m -8.085,8.376 c -0.784,0 -1.459,0.78 -1.506,1.797 -0.047,1.016 0.64,1.429 1.426,1.429 0.786,0 1.371,-0.369 1.418,-1.385 0.047,-1.017 -0.553,-1.841 -1.338,-1.841 z m 7.406,0 c -0.786,0 -1.385,0.824 -1.338,1.841 0.047,1.017 0.634,1.385 1.418,1.385 0.785,0 1.473,-0.413 1.426,-1.429 -0.046,-1.017 -0.721,-1.797 -1.506,-1.797 z m -3.703,4.013 c -0.974,0 -1.907,0.048 -2.77,0.135 -0.147,0.015 -0.241,0.168 -0.183,0.305 0.483,1.154 1.622,1.964 2.953,1.964 1.33,0 2.47,-0.81 2.953,-1.964 0.057,-0.137 -0.037,-0.29 -0.184,-0.305 -0.863,-0.087 -1.795,-0.135 -2.769,-0.135 z" id="path1" /></svg>
