<?xml version="1.0" encoding="UTF-8" standalone="no"?>
<!-- Created with Inkscape (http://www.inkscape.org/) -->
<svg xmlns:dc="http://purl.org/dc/elements/1.1/" xmlns:cc="http://web.resource.org/cc/" xmlns:rdf="http://www.w3.org/1999/02/22-rdf-syntax-ns#" xmlns:svg="http://www.w3.org/2000/svg" xmlns="http://www.w3.org/2000/svg" xmlns:sodipodi="http://sodipodi.sourceforge.net/DTD/sodipodi-0.dtd" xmlns:inkscape="http://www.inkscape.org/namespaces/inkscape" width="745.56879" height="141.03325" id="svg127772" sodipodi:version="0.32" inkscape:version="0.44" version="1.0" sodipodi:docbase="C:\Dokumente und Einstellungen\Andreas\Eigene Dateien\Eigene Bilder\sonstiges\Logos\Vektor" sodipodi:docname="SanDisk-Logo.svg">
  <defs id="defs127774">
    <clipPath clip-rule="nonzero" id="clp754">
<path id="path7265" d="M 723.1,447.07 L 809.8,447.07 L 809.8,424.05 L 723.1,424.05 L 723.1,447.07 z "/>

</clipPath>
    <clipPath clip-rule="nonzero" id="clp755">
<path id="path7274" d="M 723.1,447.07 L 809.8,447.07 L 809.8,424.05 L 723.1,424.05 L 723.1,447.07 z "/>

</clipPath>
    <clipPath clip-rule="nonzero" id="clp766">
<path id="path7617" d="M 353.2,269.72 L 381.55,269.72 L 381.55,259.96 L 353.2,259.96 L 353.2,269.72 z "/>

</clipPath>
    <clipPath clip-rule="nonzero" id="clp767">
<path id="path7626" d="M 353.2,269.72 L 381.55,269.72 L 381.55,259.96 L 353.2,259.96 L 353.2,269.72 z "/>

</clipPath>
    <clipPath clip-rule="nonzero" id="clp768">
<path id="path7694" d="M 884.27,1291.1 L 1053.9,1291.1 L 1053.9,1266.6 L 884.27,1266.6 L 884.27,1291.1 z "/>

</clipPath>
    <clipPath clip-rule="nonzero" id="clp769">
<path id="path7724" d="M 884.27,1291.1 L 1053.9,1291.1 L 1053.9,1266.6 L 884.27,1266.6 L 884.27,1291.1 z "/>

</clipPath>
  </defs>
  <sodipodi:namedview id="base" pagecolor="#ffffff" bordercolor="#666666" borderopacity="1.0" inkscape:pageopacity="0.0" inkscape:pageshadow="2" inkscape:zoom="0.73978095" inkscape:cx="554.95054" inkscape:cy="-28.123689" inkscape:document-units="px" inkscape:current-layer="layer1" inkscape:window-width="1051" inkscape:window-height="691" inkscape:window-x="43" inkscape:window-y="84"/>
  <metadata id="metadata127777">
    <rdf:RDF>
      <cc:Work rdf:about="">
        <dc:format>image/svg+xml</dc:format>
        <dc:type rdf:resource="http://purl.org/dc/dcmitype/StillImage"/>
      </cc:Work>
    </rdf:RDF>
  </metadata>
  <g inkscape:label="Ebene 1" inkscape:groupmode="layer" id="layer1" transform="translate(-2411.814,-612.0475)">
    <g id="g129094">
      <path id="path7473" class="ps062 ps128 ps20" d="M 2949.9914,743.79795 C 2947.2785,743.61348 2945.6504,743.81961 2943.1541,742.22545 C 2927.6349,729.07097 2916.0235,700.27871 2903.0006,683.32872 C 2907.3416,677.59197 2911.5743,671.97452 2917.1083,667.21372 C 2923.5106,662.11682 2926.1152,662.0735 2934.7971,662.43125 L 2934.7971,659.36225 L 2898.5496,659.35142 L 2898.5496,662.4206 C 2902.6739,662.36627 2906.7983,661.82406 2906.255,667.30053 L 2905.9301,669.03566 L 2905.6052,670.18525 L 2905.1702,671.43231 L 2904.1937,673.56868 L 2903.7605,674.56629 L 2903.1089,675.31463 L 2902.4573,676.23643 L 2884.6585,696.72164 L 2884.6585,624.78992 L 2845.0483,624.76826 L 2845.0483,627.83726 L 2860.0242,627.84809 L 2859.9159,741.69407 L 2859.8076,742.01932 L 2859.8076,742.94112 L 2859.5892,743.44002 L 2859.4809,743.51583 L 2859.3726,743.60265 L 2859.156,743.60265 L 2858.9394,743.66781 L 2845.9165,743.66781 L 2845.9165,746.74764 L 2900.5043,746.75847 L 2900.5043,743.71113 L 2885.5267,743.7003 L 2885.2018,743.52684 L 2885.0935,743.52684 L 2884.8769,743.36421 L 2884.6585,742.71334 L 2884.6585,703.73813 L 2885.7451,702.58854 C 2886.505,702.29577 2887.263,701.85121 2887.9146,702.52356 L 2888.1312,702.67536 L 2888.3496,702.84882 L 2888.6745,703.33688 L 2888.8911,703.58633 L 2911.8992,738.98281 L 2912.4425,739.81797 L 2912.7674,740.46867 L 2913.8521,742.45324 L 2913.8521,742.78933 L 2913.8521,743.2014 L 2913.8521,743.36421 L 2913.6355,743.46168 L 2913.5273,743.62431 L 2913.0923,743.71113 L 2906.3651,743.71113 L 2906.3651,746.75847 L 2951.0762,746.78013 L 2951.0762,743.72196 L 2949.9914,743.79795" style="font-size:3.15269995px;letter-spacing:-0.063054;word-spacing:0;fill:#ec1d24;fill-rule:nonzero;stroke:none;stroke-width:0.05;stroke-linecap:butt;stroke-linejoin:miter;stroke-miterlimit:4;stroke-dasharray:none;font-family:fnt0, &quot;Futura&quot;, Arial"/>
      <path id="path7477" class="ps0321 ps164 ps20" d="M 2495.5959,704.41048 C 2491.1466,678.35114 2466.4022,676.43173 2446.4337,666.59569 C 2433.0859,660.76129 2425.2722,645.64389 2435.0389,633.85595 C 2455.1157,613.7718 2482.0315,639.39759 2482.3564,662.21447 L 2487.1305,662.24696 L 2487.1305,622.89217 L 2482.3564,622.89217 C 2480.4034,643.71365 2461.7363,610.95225 2432.2177,626.75283 C 2404.6522,641.64244 2404.1089,680.07543 2436.2338,691.82005 C 2528.4789,713.48735 2437.4269,801.41477 2417.3502,692.73084 L 2411.8143,692.73084 L 2411.8143,699.91013 L 2411.8143,752.15896 L 2417.3502,752.15896 C 2417.1318,743.5485 2421.9077,742.23628 2429.0699,744.38348 C 2440.7914,747.79958 2450.2332,753.86159 2462.9294,751.28048 C 2484.526,747.26819 2498.2005,725.7092 2495.5959,704.41048" style="font-size:3.15269995px;letter-spacing:-0.063054;word-spacing:0;fill:#ec1c24;fill-rule:nonzero;stroke:none;stroke-width:0.013;stroke-linecap:butt;stroke-linejoin:miter;stroke-miterlimit:4;stroke-dasharray:none;font-family:fnt0, &quot;Futura&quot;, Arial"/>
      <path id="path7481" class="ps0321 ps164 ps20" d="M 2754.4294,640.76396 C 2759.7469,657.33436 2783.2964,651.34816 2779.9319,634.26803 C 2774.5062,617.70846 2751.2816,623.64033 2754.4294,640.76396" style="font-size:3.15269995px;letter-spacing:-0.063054;word-spacing:0;fill:#ec1c24;fill-rule:nonzero;stroke:none;stroke-width:0.013;stroke-linecap:butt;stroke-linejoin:miter;stroke-miterlimit:4;stroke-dasharray:none;font-family:fnt0, &quot;Futura&quot;, Arial"/>
      <path id="path7483" class="ps063 ps164 ps20" d="M 2754.4294,640.76396 C 2759.7469,657.33436 2783.2964,651.34816 2779.9319,634.26803 C 2774.5062,617.70846 2751.2816,623.64033 2754.4294,640.76396 z " style="font-size:3.15269995px;letter-spacing:-0.063054;word-spacing:0;fill:none;stroke:#ec1c24;stroke-width:0.14103091;stroke-linecap:butt;stroke-linejoin:miter;stroke-miterlimit:4;stroke-dasharray:none;font-family:fnt0, &quot;Futura&quot;, Arial"/>
      <path id="path7485" class="ps0321 ps164 ps20" d="M 2852.5353,710.42917 C 2846.3497,692.49241 2824.7531,693.13227 2810.4288,685.86634 C 2801.7451,681.36581 2800.0105,671.09622 2806.5211,664.27485 C 2821.8236,648.55026 2841.4654,677.37501 2841.9004,691.5706 L 2846.5662,691.5706 L 2846.5662,653.46287 L 2841.9004,653.46287 C 2838.6442,673.36255 2826.3812,649.80833 2809.0173,656.99827 C 2784.4913,663.83029 2778.5223,702.07899 2805.4363,710.24489 C 2817.156,715.10334 2836.2562,714.95136 2837.0161,731.76038 C 2837.1244,737.38884 2834.8465,742.13863 2829.7457,744.83888 C 2813.5749,753.50366 2791.9784,722.35826 2793.3898,708.3363 L 2788.6139,708.3363 L 2788.6139,743.64615 L 2780.3669,743.64615 L 2780.0402,743.48334 L 2779.9319,743.48334 L 2779.7154,743.30988 L 2779.3905,742.63753 L 2779.3905,741.65075 L 2779.3905,700.07276 L 2779.3905,659.3081 L 2744.8793,659.28644 L 2744.8793,662.1818 C 2730.0099,623.74881 2681.8261,611.99336 2646.555,629.64819 C 2718.7234,618.52178 2745.9641,700.59314 2690.8329,738.06119 L 2687.0352,740.23005 L 2683.1275,741.86753 L 2679.3298,743.02794 L 2673.7939,743.60265 L 2665.0037,743.60265 L 2664.6788,743.51583 L 2664.5705,743.51583 L 2664.2438,743.34237 L 2664.1355,743.19057 L 2663.7023,742.50739 L 2663.8106,681.08387 L 2663.3756,676.70284 C 2658.2748,652.37844 2626.37,645.68739 2613.672,669.41524 L 2613.672,659.22128 L 2574.06,659.21045 L 2574.06,662.27945 L 2589.1442,662.27945 L 2589.1442,742.42057 L 2589.0359,742.63753 L 2589.0359,742.98462 L 2588.8193,743.30988 L 2588.711,743.3967 L 2588.6027,743.48334 L 2588.3861,743.48334 L 2588.1677,743.57016 L 2579.594,743.55933 C 2572.5402,742.55089 2571.8904,735.40427 2571.8904,732.68218 L 2571.8904,674.01324 C 2571.8904,667.18123 2569.9356,663.66766 2563.9666,660.57682 C 2555.7196,656.16311 2545.9529,654.62329 2536.836,654.62329 C 2523.8131,654.62329 2501.4566,659.0045 2501.4566,675.77002 C 2501.4566,682.819 2506.5575,686.13745 2512.5265,686.13745 C 2517.409,686.13745 2522.7283,682.1683 2522.7283,676.4209 C 2522.7283,672.24563 2520.9919,667.61496 2519.6887,665.83652 C 2516.5408,661.67226 2528.0457,659.02616 2536.1844,659.02616 C 2539.7654,659.02616 2547.7976,661.22751 2547.7976,666.96427 L 2547.7976,688.47994 C 2528.5872,687.36302 2497.1157,687.59063 2497.0074,719.13746 C 2496.8991,739.64452 2512.7431,746.574 2522.9449,746.574 C 2534.7747,746.574 2540.0921,740.62047 2547.7976,730.90374 C 2548.9907,740.62047 2557.456,746.574 2566.7895,746.574 C 2567.8743,746.574 2569.9356,746.574 2569.9356,746.574 L 2623.4387,746.62833 L 2623.4387,743.58099 L 2614.3236,743.58099 L 2614.1052,743.48334 L 2613.8886,743.48334 L 2613.672,743.41818 L 2613.5637,743.32071 L 2613.4554,743.00628 L 2613.4554,742.65919 L 2613.5637,742.49656 L 2613.5637,741.99766 C 2616.3849,723.8656 2611.6107,703.46702 2614.6485,684.78191 C 2615.8416,677.62446 2618.2296,668.22234 2623.8737,663.20125 C 2627.5631,659.88281 2632.1207,658.98284 2635.8118,662.70254 L 2637.2215,664.62195 L 2638.3063,667.1704 L 2638.9579,671.7359 L 2638.9579,741.59642 C 2638.633,742.34476 2639.0662,742.48573 2638.5247,743.32071 L 2638.3063,743.42919 L 2638.3063,743.505 L 2638.0897,743.505 L 2637.8731,743.58099 L 2627.888,743.58099 L 2627.888,746.63916 C 2676.9418,743.0496 2708.1968,760.1189 2737.9338,718.16151 C 2748.8936,701.84038 2751.6065,680.88876 2744.8793,662.34461 L 2754.8626,662.34461 C 2752.8014,688.92451 2757.1423,716.55635 2754.646,743.06043 L 2754.646,743.22306 L 2754.3211,743.47251 L 2754.211,743.55933 L 2753.9944,743.55933 L 2753.7778,743.63532 L 2740.7549,743.62431 L 2740.7549,746.68248 L 2788.6139,746.72598 L 2788.6139,753.08076 L 2793.2816,753.08076 C 2794.9096,733.33288 2813.0334,751.41079 2823.3434,750.52148 C 2831.6987,750.64079 2841.0322,745.29445 2846.3497,739.2106 C 2853.7302,730.82775 2855.8998,721.263 2852.5353,710.42917 z M 2547.7976,711.286 C 2547.7976,715.48275 2547.5792,719.45189 2546.2778,722.75951 C 2543.6732,729.80848 2540.6336,735.78385 2533.1466,735.78385 C 2523.1615,735.78385 2519.1454,729.22277 2519.3638,715.63473 C 2519.6887,692.21047 2534.5563,693.12144 2547.7976,693.12144 L 2547.7976,711.286" style="font-size:3.15269995px;letter-spacing:-0.063054;word-spacing:0;fill:#ec1c24;fill-rule:nonzero;stroke:none;stroke-width:0.013;stroke-linecap:butt;stroke-linejoin:miter;stroke-miterlimit:4;stroke-dasharray:none;font-family:fnt0, &quot;Futura&quot;, Arial"/>
      <path id="path7489" class="ps02 ps164 ps20" d="M 2961.2779,728.25764 L 3092.3769,728.40944 L 3122.1121,624.97421 L 2994.5959,624.92006 L 2961.2779,728.25764" style="font-size:3.15269995px;letter-spacing:-0.063054;word-spacing:0;fill:white;fill-rule:nonzero;stroke:none;stroke-width:0.013;stroke-linecap:butt;stroke-linejoin:miter;stroke-miterlimit:4;stroke-dasharray:none;font-family:fnt0, &quot;Futura&quot;, Arial"/>
      <path id="path7491" class="ps062 ps164 ps20" d="M 3119.2909,647.61763 L 3095.523,726.77197 C 3095.1981,726.77197 3094.7649,726.77197 3094.1133,726.77197 L 3124.6084,624.97421 L 3066.0044,624.96338 L 3013.6962,701.81872 L 3108.3293,637.79243 L 3037.4623,720.61231 L 3096.0663,699.2811 L 3072.1901,726.76114 C 3035.401,726.75031 2968.0068,726.71764 2963.6659,726.71764 C 2964.859,723.38854 2976.7971,689.22811 2986.4555,661.67226 L 3020.75,625.67923 L 2990.3633,686.66883 L 3066.0044,624.96338 L 2994.5959,624.92006 L 2994.5959,624.90923 L 2957.2618,731.229 L 2988.7352,731.23983 L 2980.9214,748.64539 L 3116.7946,748.5694 L 3146.8565,647.63929 L 3119.2909,647.61763" style="font-size:3.15269995px;letter-spacing:-0.063054;word-spacing:0;fill:#ec1d24;fill-rule:nonzero;stroke:none;stroke-width:0.013;stroke-linecap:butt;stroke-linejoin:miter;stroke-miterlimit:4;stroke-dasharray:none;font-family:fnt0, &quot;Futura&quot;, Arial"/>
      <path id="path7495" class="ps02 ps164 ps20" d="M 3092.3769,725.69837 C 3088.4691,725.69837 2988.0836,725.69837 2988.0836,725.69837 L 2988.0836,731.10969 L 3096.3912,731.10969 L 3128.5161,624.96338 L 3122.872,624.96338 C 3122.872,624.96338 3093.4617,722.00033 3092.3769,725.69837" style="font-size:3.15269995px;letter-spacing:-0.063054;word-spacing:0;fill:white;fill-rule:nonzero;stroke:none;stroke-width:0.013;stroke-linecap:butt;stroke-linejoin:miter;stroke-miterlimit:4;stroke-dasharray:none;font-family:fnt0, &quot;Futura&quot;, Arial"/>
      <path id="path7497" class="ps062 ps164 ps20" d="M 3152.4989,616.87347 C 3154.5619,618.97735 3155.6467,621.49331 3155.6467,624.45365 C 3155.6467,627.43601 3154.5619,629.98446 3152.4989,632.05585 C 3150.4376,634.17038 3147.9413,635.2225 3144.9035,635.2225 C 3141.9722,635.2225 3139.476,634.17038 3137.3064,632.05585 C 3135.2433,629.98446 3134.2668,627.43601 3134.2668,624.45365 C 3134.2668,621.49331 3135.2433,618.97735 3137.4147,616.87347 C 3139.476,614.76959 3141.9722,613.73931 3144.9035,613.73931 C 3147.9413,613.73931 3150.4376,614.76959 3152.4989,616.87347 z M 3153.8021,615.66956 C 3151.3058,613.25125 3148.3763,612.04751 3144.9035,612.04751 C 3141.539,612.04751 3138.6078,613.25125 3136.1115,615.66956 C 3133.7253,618.09887 3132.5304,621.0269 3132.5304,624.45365 C 3132.5304,627.91325 3133.7253,630.85193 3136.1115,633.28125 C 3138.6078,635.69956 3141.539,636.93578 3144.9035,636.93578 C 3148.3763,636.93578 3151.3058,635.69956 3153.8021,633.28125 C 3156.19,630.83027 3157.3831,627.89141 3157.3831,624.45365 C 3157.3831,621.01608 3156.19,618.08804 3153.8021,615.66956 z M 3146.7482,623.87895 C 3146.3132,624.07407 3145.5533,624.18254 3144.4685,624.18254 L 3142.2989,624.18254 L 3142.2989,619.22662 L 3144.3602,619.22662 C 3145.6616,619.22662 3146.6399,619.38925 3147.2897,619.74718 C 3147.833,620.08344 3148.1579,620.74497 3148.1579,621.75341 C 3148.1579,622.79452 3147.7247,623.49936 3146.7482,623.87895 z M 3139.911,631.25336 L 3142.2989,631.25336 L 3142.2989,625.85269 L 3144.2519,625.85269 C 3145.5533,625.85269 3146.4215,625.99366 3146.8565,626.29725 C 3147.7247,626.80698 3148.1579,627.84809 3148.1579,629.43141 L 3148.1579,630.51584 L 3148.2662,630.94958 C 3148.2662,631.00391 3148.2662,631.06889 3148.2662,631.11221 C 3148.2662,631.15571 3148.2662,631.19903 3148.2662,631.25336 L 3150.5459,631.25336 L 3150.4376,631.09055 C 3150.4376,630.94958 3150.4376,630.7328 3150.3293,630.36405 C 3150.3293,630.00612 3150.3293,629.65902 3150.3293,629.35561 L 3150.3293,628.34699 C 3150.3293,627.64214 3150.1127,626.95878 3149.5694,626.22145 C 3149.1344,625.50559 3148.2662,625.0502 3147.1814,624.87656 C 3148.0496,624.75743 3148.7012,624.54047 3149.2445,624.22604 C 3150.1127,623.65134 3150.5459,622.76203 3150.5459,621.52562 C 3150.5459,619.81234 3149.786,618.66275 3148.4846,618.07721 C 3147.6164,617.75178 3146.4215,617.58915 3144.6851,617.58915 L 3139.911,617.58915 L 3139.911,631.25336" style="font-size:3.15269995px;letter-spacing:-0.063054;word-spacing:0;fill:#ec1d24;fill-rule:nonzero;stroke:none;stroke-width:0.013;stroke-linecap:butt;stroke-linejoin:miter;stroke-miterlimit:4;stroke-dasharray:none;font-family:fnt0, &quot;Futura&quot;, Arial"/>
    </g>
  </g>
</svg>