<svg xmlns="http://www.w3.org/2000/svg" width="600" height="89" viewBox="0 0 600 89" fill="#000" id="svg1"><g clip-path="url(#clip0_948_4737)" id="g1"><path d="m 594.317,46.9583 c 0.068,0.1462 0.101,0.3127 0.101,0.4994 0,0.2721 -0.069,0.5075 -0.206,0.7105 -0.138,0.203 -0.332,0.3573 -0.59,0.4669 -0.259,0.1097 -0.57,0.1665 -0.929,0.1665 -0.36,0 -0.671,-0.0568 -0.933,-0.1665 -0.267,-0.1096 -0.473,-0.276 -0.618,-0.4912 -0.15,-0.2152 -0.227,-0.4832 -0.235,-0.8039 h 0.893 c 0.012,0.1502 0.057,0.2761 0.133,0.3776 0.077,0.1015 0.182,0.1786 0.311,0.2273 0.13,0.0488 0.279,0.0772 0.441,0.0772 0.161,0 0.307,-0.0244 0.428,-0.069 0.121,-0.0488 0.214,-0.1137 0.283,-0.199 0.068,-0.0852 0.101,-0.1868 0.101,-0.3004 0,-0.1015 -0.033,-0.1868 -0.093,-0.2558 -0.061,-0.069 -0.15,-0.1299 -0.263,-0.1786 -0.113,-0.0488 -0.254,-0.0934 -0.416,-0.134 l -0.493,-0.1218 c -0.379,-0.0934 -0.674,-0.2396 -0.888,-0.4345 -0.214,-0.1989 -0.32,-0.4587 -0.32,-0.7835 0,-0.2721 0.073,-0.5075 0.219,-0.7105 0.145,-0.203 0.343,-0.3614 0.597,-0.4751 0.255,-0.1137 0.542,-0.1705 0.865,-0.1705 0.323,0 0.618,0.0568 0.864,0.1705 0.247,0.1137 0.437,0.2721 0.578,0.4751 0.137,0.203 0.21,0.4344 0.214,0.6983 h -0.885 c -0.016,-0.1827 -0.093,-0.3208 -0.23,-0.4182 -0.137,-0.0974 -0.319,-0.1462 -0.549,-0.1462 -0.154,0 -0.287,0.0203 -0.396,0.065 -0.109,0.0447 -0.194,0.1056 -0.251,0.1827 -0.056,0.0771 -0.084,0.1665 -0.084,0.268 0,0.1096 0.032,0.203 0.097,0.276 0.064,0.0731 0.153,0.134 0.262,0.1787 0.109,0.0446 0.226,0.0812 0.352,0.1137 l 0.404,0.1015 c 0.189,0.0406 0.363,0.0974 0.525,0.1705 0.161,0.0731 0.303,0.1624 0.424,0.2679 0.121,0.1056 0.218,0.2315 0.283,0.3736 z m 4.269,-2.7121 -0.715,2.0625 c -0.028,0.0975 -0.064,0.2233 -0.105,0.3776 -0.04,0.1543 -0.077,0.3208 -0.117,0.4994 -0.04,0.1705 -0.077,0.337 -0.109,0.4994 -0.032,-0.1624 -0.073,-0.3329 -0.109,-0.5034 -0.04,-0.1787 -0.081,-0.3411 -0.117,-0.4954 -0.037,-0.1543 -0.073,-0.2761 -0.105,-0.3735 l -0.727,-2.0625 h -1.406 v 4.4945 h 0.909 v -2.1153 c 0,-0.1015 0,-0.2274 -0.004,-0.3735 0,-0.1462 -0.008,-0.3086 -0.012,-0.4791 -0.004,-0.1705 -0.008,-0.3451 -0.012,-0.5156 0,-0.065 0,-0.1259 0,-0.1868 0.02,0.0771 0.04,0.1543 0.06,0.2355 0.049,0.1786 0.097,0.3491 0.142,0.5156 0.048,0.1665 0.092,0.3207 0.133,0.4588 0.04,0.138 0.077,0.2517 0.109,0.3451 l 0.751,2.1153 h 0.772 l 0.739,-2.1153 c 0.028,-0.0934 0.065,-0.2071 0.109,-0.3492 0.04,-0.138 0.085,-0.2923 0.133,-0.4588 0.049,-0.1664 0.093,-0.341 0.142,-0.5156 0.024,-0.0893 0.044,-0.1746 0.064,-0.2639 0,0.0771 0,0.1502 -0.004,0.2355 0,0.1705 -0.008,0.341 -0.012,0.5116 -0.004,0.1705 -0.008,0.3288 -0.012,0.475 0,0.1461 -0.004,0.2679 -0.004,0.3694 v 2.1153 H 600 v -4.4944 h -1.41 z M 0.0121177,75.7196 C 15.4345,75.7196 28.195,71.144 41.836,66.3531 55.5983,61.5623 70.1239,56.3127 87.7721,56.3127 v 12.2735 c -15.4225,0 -28.1829,4.5756 -41.9451,9.3665 C 32.1859,82.7557 17.6441,87.9931 0,87.9931 V 75.7318 Z m 0,-37.9207 H 87.7721 V 50.178 H 0.0121177 Z M 41.836,10.0364 C 55.5983,5.23338 70.1361,0 87.7721,0 v 12.2572 c -15.4225,0 -28.1829,4.5757 -41.9451,9.3665 C 32.1859,26.4268 17.6562,31.6601 0.0121177,31.6601 V 19.4029 C 15.4345,19.4029 28.195,14.8272 41.836,10.0364 Z m 240.841,38.7368 h 35.482 v -9.4274 h -25.626 v -9.7725 h 21.409 v -9.4274 h -21.409 v -8.6804 h 24.741 V 2.03814 H 282.677 V 48.7691 Z M 205.803,28.6151 211.79,12.8378 h 2.173 l 5.986,15.7773 h -14.142 z m -19.094,20.1581 h 11.076 l 4.346,-11.1326 h 21.482 l 4.492,11.1326 h 10.943 L 219.323,2.0422 H 206.409 L 186.697,48.761 Z m 63.007,0 h 10.13 V 11.4655 h 15.697 V 2.03814 h -41.525 v 9.42736 h 15.698 z m -83.818,0 h 10.131 V 11.4655 h 15.697 V 2.03814 h -41.525 v 9.42736 h 15.697 z M 108.603,45.4237 V 34.425 c 6.378,4.4417 14.203,6.4839 19.232,6.4839 5.841,0 10.131,-1.2261 10.131,-5.1156 0,-2.3183 -1.838,-3.5526 -5.365,-4.5148 l -9.929,-2.5944 c -7.202,-1.9082 -13.927,-4.4416 -13.927,-13.256 0,-10.72252 10.668,-14.482111 20.859,-14.482111 4.896,0 9.925,0.742981 14.946,2.667441 v 9.69937 c -5.987,-2.3182 -11.694,-3.0003 -16.582,-3.0003 -5.914,0 -9.173,1.2951 -9.173,4.1656 0,1.9813 1.567,3.1465 5.711,4.2387 l 10.406,2.7364 c 8.22,2.1843 13.055,6.017 13.055,13.5199 0,9.6995 -8.971,15.3713 -19.841,15.3713 -8.019,-0.0731 -14.001,-1.5022 -19.511,-4.9248 h -0.012 z M 437.022,22.7281 V 11.4534 h 12.236 c 4.144,0 6.725,2.1843 6.725,5.6678 0,3.4835 -2.508,5.5947 -6.725,5.5947 h -12.236 z m -9.997,26.0207 h 9.989 V 32.0824 h 7.679 l 12.438,16.6664 H 469.16 L 455.971,30.8603 c 6.726,-1.9204 10.264,-6.6909 10.264,-13.727 0,-9.69938 -6.451,-15.0911 -18.217,-15.0911 H 427.017 V 48.761 l 0.012,-0.0122 z m 90.196,0 h 35.482 v -9.4274 h -25.626 v -9.7725 h 21.409 v -9.4274 h -21.409 v -8.6803 h 24.741 V 2.03814 H 517.233 V 48.7569 l -0.012,-0.0121 z m -42.947,0 h 35.482 V 39.3214 H 484.13 v -9.7725 h 21.409 V 20.1215 H 484.13 v -8.6803 h 24.741 V 2.03814 H 474.274 V 48.7569 48.7448 Z m 99.894,0 h 10.131 V 11.4534 h 15.697 V 2.02596 h -41.525 v 9.42744 h 15.697 z m -180.092,0 h 10.13 V 11.4534 h 15.697 V 2.02596 h -41.525 v 9.42744 h 15.698 z m -37.785,1.5753 c 10.874,0 19.842,-5.6678 19.842,-15.3713 0,-7.5151 -4.828,-11.3356 -13.048,-13.5199 L 352.68,18.7086 c -4.145,-1.0921 -5.712,-2.2573 -5.712,-4.2386 0,-2.8705 3.26,-4.1656 9.174,-4.1656 4.899,0 10.607,0.6861 16.581,3.0003 V 3.61343 c -5.029,-1.9204 -10.058,-2.667441 -14.946,-2.667441 -10.191,0 -20.859,3.759591 -20.859,14.482111 0,8.8144 6.726,11.3356 13.932,13.256 l 9.925,2.5944 c 3.538,0.95 5.364,2.1843 5.364,4.5148 0,3.8895 -4.278,5.1156 -10.131,5.1156 -5.029,0 -12.841,-2.0544 -19.235,-6.4839 v 10.9987 c 5.505,3.4226 11.48,4.8517 19.51,4.9248 v -0.0244 z m 225.944,37.7258 h 5.639 V 70.1696 h 7.8 v -5.1035 h -21.227 v 5.1035 h 7.8 v 17.8803 z m -32.364,0 h 5.53 V 75.4435 c 0,-1.3438 -0.17,-2.9313 -0.226,-4.4416 h 0.323 c 0.691,1.6443 1.313,2.9313 2.032,4.2143 l 7.141,12.8378 h 6.621 V 65.0702 h -5.376 v 11.1326 c 0,1.3438 0.129,2.8948 0.189,4.4051 h -0.323 c -0.622,-1.4778 -1.244,-2.9313 -1.971,-4.2143 l -6.322,-11.3234 h -7.634 V 88.054 h 0.012 z m -21.421,0 h 17.98 V 82.983 h -12.389 v -4.2143 h 10.284 v -5.006 h -10.284 v -3.6256 h 11.888 V 65.0702 H 528.438 V 88.054 h 0.012 z m -31.778,0 h 5.506 v -12.513 c 0,-1.4169 -0.226,-4.1412 -0.299,-5.7287 h 0.323 c 0.396,1.6809 1.147,4.5148 1.576,5.8586 l 4.003,12.3791 h 5.247 l 4.027,-12.3791 c 0.452,-1.3804 1.05,-3.6499 1.575,-5.8586 h 0.323 c -0.06,1.5469 -0.323,4.3118 -0.323,5.7287 v 12.513 h 5.53 V 65.0336 h -8.745 l -3.571,11.7173 -1.28,4.3483 h -0.323 l -1.281,-4.3483 -3.534,-11.7173 h -8.746 v 23.0163 h -0.012 z m -21.421,0 h 17.98 V 82.983 h -12.389 v -4.2143 h 10.284 v -5.006 H 480.842 V 70.1371 H 492.73 V 65.0702 H 475.239 V 88.054 h 0.012 z M 461.263,89 c 4.29,0 7.933,-1.287 9.892,-2.8704 V 74.4448 h -12.449 v 4.8395 h 6.976 v 3.987 c -1.05,0.4913 -2.723,0.6252 -3.894,0.6252 -4.552,0 -7.336,-2.3061 -7.433,-7.0482 -0.096,-4.7421 2.784,-7.2065 7.732,-7.2065 2.387,0 5.17,0.3613 8.123,1.5509 v -5.3674 c -2.294,-0.9257 -5.639,-1.3804 -8.123,-1.3804 -8.329,0 -13.762,4.7787 -13.762,12.3425 0,7.5638 4.778,12.2126 12.938,12.2126 z m -29.387,-10.8687 1.507,-4.0804 1.244,-3.2926 1.014,-0.0366 1.183,3.1222 1.6,4.2874 z m -10.026,9.9186 h 6.189 l 1.935,-5.006 h 10.32 l 1.899,5.006 h 6.188 l -9.46,-22.9838 h -7.562 l -9.496,22.9838 z m -23.222,0 h 5.53 V 75.4435 c 0,-1.3438 -0.17,-2.9313 -0.226,-4.4416 h 0.335 c 0.695,1.6443 1.313,2.9313 2.032,4.2143 l 7.145,12.8378 h 6.617 V 65.0702 h -5.376 v 11.1326 c 0,1.3438 0.129,2.8948 0.202,4.4051 h -0.324 c -0.622,-1.4778 -1.244,-2.9313 -1.959,-4.2143 l -6.317,-11.3234 h -7.635 V 88.054 h -0.024 z m -18.315,-9.9186 1.507,-4.0804 1.244,-3.2926 1.014,-0.0366 1.184,3.1222 1.599,4.2874 z m -10.021,9.9186 h 6.188 l 1.935,-5.006 h 10.32 l 1.899,5.006 h 6.188 l -9.46,-22.9838 H 379.8 l -9.496,22.9838 z m -29.282,0 h 5.506 v -12.513 c 0,-1.4169 -0.227,-4.1412 -0.299,-5.7287 h 0.323 c 0.396,1.6809 1.147,4.5148 1.575,5.8586 l 4.003,12.3791 h 5.243 l 4.028,-12.3791 c 0.452,-1.3804 1.05,-3.6499 1.575,-5.8586 h 0.323 c -0.06,1.5469 -0.323,4.3118 -0.323,5.7287 v 12.513 h 5.53 V 65.0336 h -8.745 l -3.571,11.7173 -1.281,4.3483 h -0.323 l -1.28,-4.3483 -3.535,-11.7173 h -8.745 v 23.0163 h -0.012 z m -23.461,0 h 5.639 V 70.1696 h 7.8 v -5.1035 h -21.231 v 5.1035 h 7.8 v 17.8803 h -0.012 z m -32.363,0 h 5.529 V 75.4435 c 0,-1.3438 -0.169,-2.9313 -0.226,-4.4416 h 0.323 c 0.691,1.6443 1.313,2.9313 2.032,4.2143 l 7.146,12.8378 h 6.616 V 65.0702 h -5.376 v 11.1326 c 0,1.3438 0.133,2.8948 0.194,4.4051 h -0.323 c -0.622,-1.4778 -1.244,-2.9313 -1.971,-4.2143 l -6.318,-11.3234 h -7.635 V 88.054 h 0.013 z m -21.421,0 h 17.991 V 82.983 h -12.389 v -4.2143 h 10.285 v -5.006 h -10.285 v -3.6256 h 11.888 v -5.0669 h -17.49 V 88.054 Z m -31.778,0 h 5.505 v -12.513 c 0,-1.4169 -0.226,-4.1412 -0.299,-5.7287 h 0.324 c 0.395,1.6809 1.147,4.5148 1.575,5.8586 l 4.003,12.3791 h 5.243 l 4.027,-12.3791 c 0.453,-1.3804 1.051,-3.6499 1.576,-5.8586 h 0.335 c -0.073,1.5469 -0.335,4.3118 -0.335,5.7287 v 12.513 h 5.542 V 65.0336 h -8.745 l -3.571,11.7173 -1.281,4.3483 h -0.323 l -1.28,-4.3483 -3.535,-11.7173 h -8.745 v 23.0163 h -0.024 z m -16.57,0 h 5.639 V 70.1696 h 7.8 v -5.1035 h -21.227 v 5.1035 h 7.8 v 17.8803 z m -18.181,0.6618 c 5.267,0 9.63,-2.7364 9.63,-7.6003 0,-3.7231 -2.557,-5.7288 -6.617,-6.8209 l -5.077,-1.3439 c -1.471,-0.3979 -2.125,-0.8526 -2.125,-1.7783 0,-1.0556 1.074,-1.7783 3.833,-1.7783 2.594,0 5.34,0.4548 8.184,1.4779 v -5.1035 c -2.722,-0.9866 -5.243,-1.4169 -7.861,-1.4169 -4.851,0 -9.722,1.8351 -9.722,7.2146 0,4.4783 3.344,6.0292 6.846,6.8818 l 4.779,1.1896 c 1.373,0.3248 2.258,0.9622 2.258,1.9448 0,1.5834 -1.806,2.0422 -4.395,2.0422 -2.722,0 -5.962,-0.8892 -8.971,-2.8705 v 5.8221 c 2.617,1.5144 5.663,2.1356 9.234,2.1356 m -30.005,-0.6578 h 17.979 V 82.983 H 172.83 v -4.2143 h 10.284 v -5.006 H 172.83 v -3.6256 h 11.888 V 65.0702 H 167.227 V 88.054 Z m -17.6,0 h 7.013 l 8.838,-22.9838 h -6.261 l -4.383,12.4156 -1.507,4.5391 h -0.395 c -0.429,-1.287 -1.014,-3.2318 -1.471,-4.5148 l -4.516,-12.4399 h -6.317 l 9.007,22.9838 h -0.012 z m -32.157,0 H 123 V 75.4435 c 0,-1.3438 -0.17,-2.9313 -0.227,-4.4416 h 0.324 c 0.69,1.6443 1.312,2.9313 2.031,4.2143 l 7.146,12.8378 h 6.617 V 65.0702 h -5.377 v 11.1326 c 0,1.3438 0.129,2.8948 0.202,4.4051 h -0.323 c -0.622,-1.4778 -1.24,-2.9313 -1.971,-4.2143 L 125.104,65.0702 H 117.47 V 88.054 Z m -9.667,0 h 5.603 V 65.0661 h -5.603 z" fill="#000" id="path1" /></g><defs id="defs1"><clipPath id="clip0_948_4737"><rect width="600" height="89" fill="#000" id="rect1" x="0" y="0" /></clipPath></defs></svg>
